solid generated_mesh
  facet normal -9.210949e-01 -2.489752e-02 3.885411e-01
    outer loop
      vertex -4.700000e+01 -4.700000e+01 0.000000e+00
      vertex -4.334913e+01 -4.334913e+01 8.888889e+00
      vertex -4.358347e+01 -3.467930e+01 8.888889e+00
    endloop
  endfacet
  facet normal 9.334257e-01 0.000000e+00 -3.587707e-01
    outer loop
      vertex -4.700000e+01 -4.700000e+01 0.000000e+00
      vertex -4.700000e+01 -3.760000e+01 0.000000e+00
      vertex -4.358347e+01 -3.467930e+01 8.888889e+00
    endloop
  endfacet
  facet normal -9.156609e-01 -5.408308e-02 3.982965e-01
    outer loop
      vertex -4.334913e+01 -4.334913e+01 8.888889e+00
      vertex -3.969825e+01 -3.969825e+01 1.777778e+01
      vertex -4.016720e+01 -3.175860e+01 1.777778e+01
    endloop
  endfacet
  facet normal 9.303447e-01 2.514754e-02 -3.658227e-01
    outer loop
      vertex -4.334913e+01 -4.334913e+01 8.888889e+00
      vertex -4.358347e+01 -3.467930e+01 8.888889e+00
      vertex -4.016720e+01 -3.175860e+01 1.777778e+01
    endloop
  endfacet
  facet normal -9.080394e-01 -8.870274e-02 4.093852e-01
    outer loop
      vertex -3.969825e+01 -3.969825e+01 1.777778e+01
      vertex -3.604738e+01 -3.604738e+01 2.666667e+01
      vertex -3.675164e+01 -2.883790e+01 2.666667e+01
    endloop
  endfacet
  facet normal 9.259147e-01 5.468872e-02 -3.737528e-01
    outer loop
      vertex -3.969825e+01 -3.969825e+01 1.777778e+01
      vertex -4.016720e+01 -3.175860e+01 1.777778e+01
      vertex -3.675164e+01 -2.883790e+01 2.666667e+01
    endloop
  endfacet
  facet normal -8.971739e-01 -1.303174e-01 4.220146e-01
    outer loop
      vertex -3.604738e+01 -3.604738e+01 2.666667e+01
      vertex -3.239650e+01 -3.239650e+01 3.555556e+01
      vertex -3.333764e+01 -2.591720e+01 3.555556e+01
    endloop
  endfacet
  facet normal 9.195069e-01 8.982295e-02 -3.826734e-01
    outer loop
      vertex -3.604738e+01 -3.604738e+01 2.666667e+01
      vertex -3.675164e+01 -2.883790e+01 2.666667e+01
      vertex -3.333764e+01 -2.591720e+01 3.555556e+01
    endloop
  endfacet
  facet normal -8.813571e-01 -1.810839e-01 4.363693e-01
    outer loop
      vertex -3.239650e+01 -3.239650e+01 3.555556e+01
      vertex -2.874563e+01 -2.874563e+01 4.444444e+01
      vertex -2.992685e+01 -2.299650e+01 4.444444e+01
    endloop
  endfacet
  facet normal 9.101294e-01 1.321992e-01 -3.926677e-01
    outer loop
      vertex -3.239650e+01 -3.239650e+01 3.555556e+01
      vertex -3.333764e+01 -2.591720e+01 3.555556e+01
      vertex -2.992685e+01 -2.299650e+01 4.444444e+01
    endloop
  endfacet
  facet normal -8.577260e-01 -2.440114e-01 4.525092e-01
    outer loop
      vertex -2.874563e+01 -2.874563e+01 4.444444e+01
      vertex -2.509476e+01 -2.509476e+01 5.333333e+01
      vertex -2.652258e+01 -2.007581e+01 5.333333e+01
    endloop
  endfacet
  facet normal 8.961656e-01 1.841265e-01 -4.037136e-01
    outer loop
      vertex -2.874563e+01 -2.874563e+01 4.444444e+01
      vertex -2.992685e+01 -2.299650e+01 4.444444e+01
      vertex -2.652258e+01 -2.007581e+01 5.333333e+01
    endloop
  endfacet
  facet normal -8.212803e-01 -3.232770e-01 4.700964e-01
    outer loop
      vertex -2.509476e+01 -2.509476e+01 5.333333e+01
      vertex -2.144388e+01 -2.144388e+01 6.222222e+01
      vertex -2.313206e+01 -1.715511e+01 6.222222e+01
    endloop
  endfacet
  facet normal 8.748829e-01 2.488923e-01 -4.154908e-01
    outer loop
      vertex -2.509476e+01 -2.509476e+01 5.333333e+01
      vertex -2.652258e+01 -2.007581e+01 5.333333e+01
      vertex -2.313206e+01 -1.715511e+01 6.222222e+01
    endloop
  endfacet
  facet normal -7.629294e-01 -4.244059e-01 4.876663e-01
    outer loop
      vertex -2.144388e+01 -2.144388e+01 6.222222e+01
      vertex -1.779301e+01 -1.779301e+01 7.111111e+01
      vertex -1.977261e+01 -1.423441e+01 7.111111e+01
    endloop
  endfacet
  facet normal 8.414750e-01 3.312262e-01 -4.268594e-01
    outer loop
      vertex -2.144388e+01 -2.144388e+01 6.222222e+01
      vertex -2.313206e+01 -1.715511e+01 6.222222e+01
      vertex -1.977261e+01 -1.423441e+01 7.111111e+01
    endloop
  endfacet
  facet normal -6.657785e-01 -5.532299e-01 5.006752e-01
    outer loop
      vertex -1.779301e+01 -1.779301e+01 7.111111e+01
      vertex -1.414214e+01 -1.414214e+01 8.000000e+01
      vertex -1.649242e+01 -1.131371e+01 8.000000e+01
    endloop
  endfacet
  facet normal 7.871478e-01 4.378783e-01 -4.343512e-01
    outer loop
      vertex -1.779301e+01 -1.779301e+01 7.111111e+01
      vertex -1.977261e+01 -1.423441e+01 7.111111e+01
      vertex -1.649242e+01 -1.131371e+01 8.000000e+01
    endloop
  endfacet
  facet normal -9.310765e-01 -1.957176e-02 3.642986e-01
    outer loop
      vertex -4.700000e+01 -3.760000e+01 0.000000e+00
      vertex -4.358347e+01 -3.467930e+01 8.888889e+00
      vertex -4.376572e+01 -2.600948e+01 8.888889e+00
    endloop
  endfacet
  facet normal 9.397269e-01 0.000000e+00 -3.419258e-01
    outer loop
      vertex -4.700000e+01 -3.760000e+01 0.000000e+00
      vertex -4.700000e+01 -2.820000e+01 0.000000e+00
      vertex -4.376572e+01 -2.600948e+01 8.888889e+00
    endloop
  endfacet
  facet normal -9.278212e-01 -4.259391e-02 3.705854e-01
    outer loop
      vertex -4.358347e+01 -3.467930e+01 8.888889e+00
      vertex -4.016720e+01 -3.175860e+01 1.777778e+01
      vertex -4.053169e+01 -2.381895e+01 1.777778e+01
    endloop
  endfacet
  facet normal 9.379820e-01 1.971692e-02 -3.461229e-01
    outer loop
      vertex -4.358347e+01 -3.467930e+01 8.888889e+00
      vertex -4.376572e+01 -2.600948e+01 8.888889e+00
      vertex -4.053169e+01 -2.381895e+01 1.777778e+01
    endloop
  endfacet
  facet normal -9.232505e-01 -7.001486e-02 3.777649e-01
    outer loop
      vertex -4.016720e+01 -3.175860e+01 1.777778e+01
      vertex -3.675164e+01 -2.883790e+01 2.666667e+01
      vertex -3.729838e+01 -2.162843e+01 2.666667e+01
    endloop
  endfacet
  facet normal 9.354465e-01 4.294397e-02 -3.508499e-01
    outer loop
      vertex -4.016720e+01 -3.175860e+01 1.777778e+01
      vertex -4.053169e+01 -2.381895e+01 1.777778e+01
      vertex -3.729838e+01 -2.162843e+01 2.666667e+01
    endloop
  endfacet
  facet normal -9.167238e-01 -1.031376e-01 3.859794e-01
    outer loop
      vertex -3.675164e+01 -2.883790e+01 2.666667e+01
      vertex -3.333764e+01 -2.591720e+01 3.555556e+01
      vertex -3.406661e+01 -1.943790e+01 3.555556e+01
    endloop
  endfacet
  facet normal 9.317454e-01 7.065908e-02 -3.561710e-01
    outer loop
      vertex -3.675164e+01 -2.883790e+01 2.666667e+01
      vertex -3.729838e+01 -2.162843e+01 2.666667e+01
      vertex -3.406661e+01 -1.943790e+01 3.555556e+01
    endloop
  endfacet
  facet normal -9.072071e-01 -1.437794e-01 3.953514e-01
    outer loop
      vertex -3.333764e+01 -2.591720e+01 3.555556e+01
      vertex -2.992685e+01 -2.299650e+01 4.444444e+01
      vertex -3.083800e+01 -1.724738e+01 4.444444e+01
    endloop
  endfacet
  facet normal 9.262855e-01 1.042133e-01 -3.621254e-01
    outer loop
      vertex -3.333764e+01 -2.591720e+01 3.555556e+01
      vertex -3.406661e+01 -1.943790e+01 3.555556e+01
      vertex -3.083800e+01 -1.724738e+01 4.444444e+01
    endloop
  endfacet
  facet normal -8.929802e-01 -1.944991e-01 4.059019e-01
    outer loop
      vertex -2.992685e+01 -2.299650e+01 4.444444e+01
      vertex -2.652258e+01 -2.007581e+01 5.333333e+01
      vertex -2.761575e+01 -1.505685e+01 5.333333e+01
    endloop
  endfacet
  facet normal 9.181008e-01 1.455059e-01 -3.686720e-01
    outer loop
      vertex -2.992685e+01 -2.299650e+01 4.444444e+01
      vertex -3.083800e+01 -1.724738e+01 4.444444e+01
      vertex -2.761575e+01 -1.505685e+01 5.333333e+01
    endloop
  endfacet
  facet normal -8.711047e-01 -2.588703e-01 4.173282e-01
    outer loop
      vertex -2.652258e+01 -2.007581e+01 5.333333e+01
      vertex -2.313206e+01 -1.715511e+01 6.222222e+01
      vertex -2.440657e+01 -1.286633e+01 6.222222e+01
    endloop
  endfacet
  facet normal 9.055713e-01 1.972416e-01 -3.755480e-01
    outer loop
      vertex -2.652258e+01 -2.007581e+01 5.333333e+01
      vertex -2.761575e+01 -1.505685e+01 5.333333e+01
      vertex -2.440657e+01 -1.286633e+01 6.222222e+01
    endloop
  endfacet
  facet normal -8.365415e-01 -3.415775e-01 4.283961e-01
    outer loop
      vertex -2.313206e+01 -1.715511e+01 6.222222e+01
      vertex -1.977261e+01 -1.423441e+01 7.111111e+01
      vertex -2.122566e+01 -1.067581e+01 7.111111e+01
    endloop
  endfacet
  facet normal 8.859107e-01 2.632703e-01 -3.819045e-01
    outer loop
      vertex -2.313206e+01 -1.715511e+01 6.222222e+01
      vertex -2.440657e+01 -1.286633e+01 6.222222e+01
      vertex -2.122566e+01 -1.067581e+01 7.111111e+01
    endloop
  endfacet
  facet normal -7.814272e-01 -4.471110e-01 4.352738e-01
    outer loop
      vertex -1.977261e+01 -1.423441e+01 7.111111e+01
      vertex -1.649242e+01 -1.131371e+01 8.000000e+01
      vertex -1.811077e+01 -8.485281e+00 8.000000e+01
    endloop
  endfacet
  facet normal 8.543043e-01 3.488304e-01 -3.853331e-01
    outer loop
      vertex -1.977261e+01 -1.423441e+01 7.111111e+01
      vertex -2.122566e+01 -1.067581e+01 7.111111e+01
      vertex -1.811077e+01 -8.485281e+00 8.000000e+01
    endloop
  endfacet
  facet normal -9.385130e-01 -1.408996e-02 3.449564e-01
    outer loop
      vertex -4.700000e+01 -2.820000e+01 0.000000e+00
      vertex -4.376572e+01 -2.600948e+01 8.888889e+00
      vertex -4.389588e+01 -1.733965e+01 8.888889e+00
    endloop
  endfacet
  facet normal 9.440896e-01 0.000000e+00 -3.296889e-01
    outer loop
      vertex -4.700000e+01 -2.820000e+01 0.000000e+00
      vertex -4.700000e+01 -1.880000e+01 0.000000e+00
      vertex -4.389588e+01 -1.733965e+01 8.888889e+00
    endloop
  endfacet
  facet normal -9.368377e-01 -3.070404e-02 3.484142e-01
    outer loop
      vertex -4.376572e+01 -2.600948e+01 8.888889e+00
      vertex -4.053169e+01 -2.381895e+01 1.777778e+01
      vertex -4.079191e+01 -1.587930e+01 1.777778e+01
    endloop
  endfacet
  facet normal 9.432735e-01 1.416143e-02 -3.317146e-01
    outer loop
      vertex -4.376572e+01 -2.600948e+01 8.888889e+00
      vertex -4.389588e+01 -1.733965e+01 8.888889e+00
      vertex -4.079191e+01 -1.587930e+01 1.777778e+01
    endloop
  endfacet
  facet normal -9.344921e-01 -5.054840e-02 3.523767e-01
    outer loop
      vertex -4.053169e+01 -2.381895e+01 1.777778e+01
      vertex -3.729838e+01 -2.162843e+01 2.666667e+01
      vertex -3.768835e+01 -1.441895e+01 2.666667e+01
    endloop
  endfacet
  facet normal 9.420686e-01 3.087548e-02 -3.339962e-01
    outer loop
      vertex -4.053169e+01 -2.381895e+01 1.777778e+01
      vertex -4.079191e+01 -1.587930e+01 1.777778e+01
      vertex -3.768835e+01 -1.441895e+01 2.666667e+01
    endloop
  endfacet
  facet normal -9.311496e-01 -7.459802e-02 3.569250e-01
    outer loop
      vertex -3.729838e+01 -2.162843e+01 2.666667e+01
      vertex -3.406661e+01 -1.943790e+01 3.555556e+01
      vertex -3.458569e+01 -1.295860e+01 3.555556e+01
    endloop
  endfacet
  facet normal 9.402866e-01 5.086184e-02 -3.365622e-01
    outer loop
      vertex -3.729838e+01 -2.162843e+01 2.666667e+01
      vertex -3.768835e+01 -1.441895e+01 2.666667e+01
      vertex -3.458569e+01 -1.295860e+01 3.555556e+01
    endloop
  endfacet
  facet normal -9.262843e-01 -1.042197e-01 3.621266e-01
    outer loop
      vertex -3.406661e+01 -1.943790e+01 3.555556e+01
      vertex -3.083800e+01 -1.724738e+01 4.444444e+01
      vertex -3.148486e+01 -1.149825e+01 4.444444e+01
    endloop
  endfacet
  facet normal 9.376284e-01 7.511706e-02 -3.394266e-01
    outer loop
      vertex -3.406661e+01 -1.943790e+01 3.555556e+01
      vertex -3.458569e+01 -1.295860e+01 3.555556e+01
      vertex -3.148486e+01 -1.149825e+01 4.444444e+01
    endloop
  endfacet
  facet normal -9.190268e-01 -1.413458e-01 3.679825e-01
    outer loop
      vertex -3.083800e+01 -1.724738e+01 4.444444e+01
      vertex -2.761575e+01 -1.505685e+01 5.333333e+01
      vertex -2.838767e+01 -1.003790e+01 5.333333e+01
    endloop
  endfacet
  facet normal 9.336059e-01 1.050435e-01 -3.425578e-01
    outer loop
      vertex -3.083800e+01 -1.724738e+01 4.444444e+01
      vertex -3.148486e+01 -1.149825e+01 4.444444e+01
      vertex -2.838767e+01 -1.003790e+01 5.333333e+01
    endloop
  endfacet
  facet normal -9.079167e-01 -1.886764e-01 3.742840e-01
    outer loop
      vertex -2.761575e+01 -1.505685e+01 5.333333e+01
      vertex -2.440657e+01 -1.286633e+01 6.222222e+01
      vertex -2.529783e+01 -8.577553e+00 6.222222e+01
    endloop
  endfacet
  facet normal 9.274024e-01 1.426340e-01 -3.458039e-01
    outer loop
      vertex -2.761575e+01 -1.505685e+01 5.333333e+01
      vertex -2.838767e+01 -1.003790e+01 5.333333e+01
      vertex -2.529783e+01 -8.577553e+00 6.222222e+01
    endloop
  endfacet
  facet normal -8.905500e-01 -2.497044e-01 3.802216e-01
    outer loop
      vertex -2.440657e+01 -1.286633e+01 6.222222e+01
      vertex -2.122566e+01 -1.067581e+01 7.111111e+01
      vertex -2.222347e+01 -7.117204e+00 7.111111e+01
    endloop
  endfacet
  facet normal 9.176274e-01 1.906945e-01 -3.487055e-01
    outer loop
      vertex -2.440657e+01 -1.286633e+01 6.222222e+01
      vertex -2.529783e+01 -8.577553e+00 6.222222e+01
      vertex -2.222347e+01 -7.117204e+00 7.111111e+01
    endloop
  endfacet
  facet normal -8.636039e-01 -3.274836e-01 3.833313e-01
    outer loop
      vertex -2.122566e+01 -1.067581e+01 7.111111e+01
      vertex -1.811077e+01 -8.485281e+00 8.000000e+01
      vertex -1.918333e+01 -5.656854e+00 8.000000e+01
    endloop
  endfacet
  facet normal 9.019529e-01 2.529017e-01 -3.500311e-01
    outer loop
      vertex -2.122566e+01 -1.067581e+01 7.111111e+01
      vertex -2.222347e+01 -7.117204e+00 7.111111e+01
      vertex -1.918333e+01 -5.656854e+00 8.000000e+01
    endloop
  endfacet
  facet normal -9.436201e-01 -8.499367e-03 3.309212e-01
    outer loop
      vertex -4.700000e+01 -1.880000e+01 0.000000e+00
      vertex -4.389588e+01 -1.733965e+01 8.888889e+00
      vertex -4.397397e+01 -8.669825e+00 8.888889e+00
    endloop
  endfacet
  facet normal 9.466491e-01 0.000000e+00 -3.222661e-01
    outer loop
      vertex -4.700000e+01 -1.880000e+01 0.000000e+00
      vertex -4.700000e+01 -9.400000e+00 0.000000e+00
      vertex -4.397397e+01 -8.669825e+00 8.888889e+00
    endloop
  endfacet
  facet normal -9.429806e-01 -1.853685e-02 3.323312e-01
    outer loop
      vertex -4.389588e+01 -1.733965e+01 8.888889e+00
      vertex -4.079191e+01 -1.587930e+01 1.777778e+01
      vertex -4.094798e+01 -7.939650e+00 1.777778e+01
    endloop
  endfacet
  facet normal 9.464023e-01 8.524426e-03 -3.228778e-01
    outer loop
      vertex -4.389588e+01 -1.733965e+01 8.888889e+00
      vertex -4.397397e+01 -8.669825e+00 8.888889e+00
      vertex -4.094798e+01 -7.939650e+00 1.777778e+01
    endloop
  endfacet
  facet normal -9.420951e-01 -3.054721e-02 3.339515e-01
    outer loop
      vertex -4.079191e+01 -1.587930e+01 1.777778e+01
      vertex -3.768835e+01 -1.441895e+01 2.666667e+01
      vertex -3.792211e+01 -7.209476e+00 2.666667e+01
    endloop
  endfacet
  facet normal 9.460236e-01 1.859667e-02 -3.235638e-01
    outer loop
      vertex -4.079191e+01 -1.587930e+01 1.777778e+01
      vertex -4.094798e+01 -7.939650e+00 1.777778e+01
      vertex -3.792211e+01 -7.209476e+00 2.666667e+01
    endloop
  endfacet
  facet normal -9.408457e-01 -4.513227e-02 3.358161e-01
    outer loop
      vertex -3.768835e+01 -1.441895e+01 2.666667e+01
      vertex -3.458569e+01 -1.295860e+01 3.555556e+01
      vertex -3.489650e+01 -6.479301e+00 3.555556e+01
    endloop
  endfacet
  facet normal 9.454469e-01 3.065588e-02 -3.243308e-01
    outer loop
      vertex -3.768835e+01 -1.441895e+01 2.666667e+01
      vertex -3.792211e+01 -7.209476e+00 2.666667e+01
      vertex -3.489650e+01 -6.479301e+00 3.555556e+01
    endloop
  endfacet
  facet normal -9.390431e-01 -6.313777e-02 3.379521e-01
    outer loop
      vertex -3.458569e+01 -1.295860e+01 3.555556e+01
      vertex -3.148486e+01 -1.149825e+01 4.444444e+01
      vertex -3.187141e+01 -5.749126e+00 4.444444e+01
    endloop
  endfacet
  facet normal 9.445661e-01 4.531073e-02 -3.251797e-01
    outer loop
      vertex -3.458569e+01 -1.295860e+01 3.555556e+01
      vertex -3.489650e+01 -6.479301e+00 3.555556e+01
      vertex -3.187141e+01 -5.749126e+00 4.444444e+01
    endloop
  endfacet
  facet normal -9.363776e-01 -8.576130e-02 3.403557e-01
    outer loop
      vertex -3.148486e+01 -1.149825e+01 4.444444e+01
      vertex -2.838767e+01 -1.003790e+01 5.333333e+01
      vertex -2.884734e+01 -5.018951e+00 5.333333e+01
    endloop
  endfacet
  facet normal 9.432073e-01 6.341775e-02 -3.260955e-01
    outer loop
      vertex -3.148486e+01 -1.149825e+01 4.444444e+01
      vertex -3.187141e+01 -5.749126e+00 4.444444e+01
      vertex -2.884734e+01 -5.018951e+00 5.333333e+01
    endloop
  endfacet
  facet normal -9.323368e-01 -1.146741e-01 3.429256e-01
    outer loop
      vertex -2.838767e+01 -1.003790e+01 5.333333e+01
      vertex -2.529783e+01 -8.577553e+00 6.222222e+01
      vertex -2.582534e+01 -4.288777e+00 6.222222e+01
    endloop
  endfacet
  facet normal 9.410774e-01 8.619174e-02 -3.270235e-01
    outer loop
      vertex -2.838767e+01 -1.003790e+01 5.333333e+01
      vertex -2.884734e+01 -5.018951e+00 5.333333e+01
      vertex -2.582534e+01 -4.288777e+00 6.222222e+01
    endloop
  endfacet
  facet normal -9.261053e-01 -1.520147e-01 3.452831e-01
    outer loop
      vertex -2.529783e+01 -8.577553e+00 6.222222e+01
      vertex -2.222347e+01 -7.117204e+00 7.111111e+01
      vertex -2.280759e+01 -3.558602e+00 7.111111e+01
    endloop
  endfacet
  facet normal 9.376769e-01 1.153309e-01 -3.278120e-01
    outer loop
      vertex -2.529783e+01 -8.577553e+00 6.222222e+01
      vertex -2.582534e+01 -4.288777e+00 6.222222e+01
      vertex -2.280759e+01 -3.558602e+00 7.111111e+01
    endloop
  endfacet
  facet normal -9.166618e-01 -1.995298e-01 3.462934e-01
    outer loop
      vertex -2.222347e+01 -7.117204e+00 7.111111e+01
      vertex -1.918333e+01 -5.656854e+00 8.000000e+01
      vertex -1.979899e+01 -2.828427e+00 8.000000e+01
    endloop
  endfacet
  facet normal 9.321754e-01 1.530111e-01 -3.280801e-01
    outer loop
      vertex -2.222347e+01 -7.117204e+00 7.111111e+01
      vertex -2.280759e+01 -3.558602e+00 7.111111e+01
      vertex -1.979899e+01 -2.828427e+00 8.000000e+01
    endloop
  endfacet
  facet normal -9.465740e-01 -2.841889e-03 3.224740e-01
    outer loop
      vertex -4.700000e+01 -9.400000e+00 0.000000e+00
      vertex -4.397397e+01 -8.669825e+00 8.888889e+00
      vertex -4.400000e+01 2.694223e-15 8.888889e+00
    endloop
  endfacet
  facet normal 9.474923e-01 0.000000e+00 -3.197786e-01
    outer loop
      vertex -4.700000e+01 -9.400000e+00 0.000000e+00
      vertex -4.700000e+01 2.877920e-15 0.000000e+00
      vertex -4.400000e+01 2.694223e-15 8.888889e+00
    endloop
  endfacet
  facet normal -9.464768e-01 -6.200794e-03 3.227123e-01
    outer loop
      vertex -4.397397e+01 -8.669825e+00 8.888889e+00
      vertex -4.094798e+01 -7.939650e+00 1.777778e+01
      vertex -4.100000e+01 2.510526e-15 1.777778e+01
    endloop
  endfacet
  facet normal 9.474884e-01 2.844634e-03 -3.197774e-01
    outer loop
      vertex -4.397397e+01 -8.669825e+00 8.888889e+00
      vertex -4.400000e+01 2.694223e-15 8.888889e+00
      vertex -4.100000e+01 2.510526e-15 1.777778e+01
    endloop
  endfacet
  facet normal -9.463483e-01 -1.022359e-02 3.229865e-01
    outer loop
      vertex -4.094798e+01 -7.939650e+00 1.777778e+01
      vertex -3.792211e+01 -7.209476e+00 2.666667e+01
      vertex -3.800000e+01 2.326829e-15 2.666667e+01
    endloop
  endfacet
  facet normal 9.474740e-01 6.207327e-03 -3.197725e-01
    outer loop
      vertex -4.094798e+01 -7.939650e+00 1.777778e+01
      vertex -4.100000e+01 2.510526e-15 1.777778e+01
      vertex -3.800000e+01 2.326829e-15 2.666667e+01
    endloop
  endfacet
  facet normal -9.461752e-01 -1.511385e-02 3.233020e-01
    outer loop
      vertex -3.792211e+01 -7.209476e+00 2.666667e+01
      vertex -3.489650e+01 -6.479301e+00 3.555556e+01
      vertex -3.500000e+01 2.143132e-15 3.555556e+01
    endloop
  endfacet
  facet normal 9.474426e-01 1.023542e-02 -3.197619e-01
    outer loop
      vertex -3.792211e+01 -7.209476e+00 2.666667e+01
      vertex -3.800000e+01 2.326829e-15 2.666667e+01
      vertex -3.500000e+01 2.143132e-15 3.555556e+01
    endloop
  endfacet
  facet normal -9.459362e-01 -2.115792e-02 3.236619e-01
    outer loop
      vertex -3.489650e+01 -6.479301e+00 3.555556e+01
      vertex -3.187141e+01 -5.749126e+00 4.444444e+01
      vertex -3.200000e+01 1.959435e-15 4.444444e+01
    endloop
  endfacet
  facet normal 9.473838e-01 1.513316e-02 -3.197420e-01
    outer loop
      vertex -3.489650e+01 -6.479301e+00 3.555556e+01
      vertex -3.500000e+01 2.143132e-15 3.555556e+01
      vertex -3.200000e+01 1.959435e-15 4.444444e+01
    endloop
  endfacet
  facet normal -9.455985e-01 -2.876148e-02 3.240622e-01
    outer loop
      vertex -3.187141e+01 -5.749126e+00 4.444444e+01
      vertex -2.884734e+01 -5.018951e+00 5.333333e+01
      vertex -2.900000e+01 1.775738e-15 5.333333e+01
    endloop
  endfacet
  facet normal 9.472796e-01 2.118797e-02 -3.197069e-01
    outer loop
      vertex -3.187141e+01 -5.749126e+00 4.444444e+01
      vertex -3.200000e+01 1.959435e-15 4.444444e+01
      vertex -2.900000e+01 1.775738e-15 5.333333e+01
    endloop
  endfacet
  facet normal -9.451104e-01 -3.849003e-02 3.244762e-01
    outer loop
      vertex -2.884734e+01 -5.018951e+00 5.333333e+01
      vertex -2.582534e+01 -4.288777e+00 6.222222e+01
      vertex -2.600000e+01 1.592041e-15 6.222222e+01
    endloop
  endfacet
  facet normal 9.470991e-01 2.880712e-02 -3.196459e-01
    outer loop
      vertex -2.884734e+01 -5.018951e+00 5.333333e+01
      vertex -2.900000e+01 1.775738e-15 5.333333e+01
      vertex -2.600000e+01 1.592041e-15 6.222222e+01
    endloop
  endfacet
  facet normal -9.443983e-01 -5.106280e-02 3.248146e-01
    outer loop
      vertex -2.582534e+01 -4.288777e+00 6.222222e+01
      vertex -2.280759e+01 -3.558602e+00 7.111111e+01
      vertex -2.300000e+01 1.408344e-15 7.111111e+01
    endloop
  endfacet
  facet normal 9.467877e-01 3.855834e-02 -3.195408e-01
    outer loop
      vertex -2.582534e+01 -4.288777e+00 6.222222e+01
      vertex -2.600000e+01 1.592041e-15 6.222222e+01
      vertex -2.300000e+01 1.408344e-15 7.111111e+01
    endloop
  endfacet
  facet normal -9.433976e-01 -6.704520e-02 3.248168e-01
    outer loop
      vertex -2.280759e+01 -3.558602e+00 7.111111e+01
      vertex -1.979899e+01 -2.828427e+00 8.000000e+01
      vertex -2.000000e+01 1.224647e-15 8.000000e+01
    endloop
  endfacet
  facet normal 9.462514e-01 5.116300e-02 -3.193598e-01
    outer loop
      vertex -2.280759e+01 -3.558602e+00 7.111111e+01
      vertex -2.300000e+01 1.408344e-15 7.111111e+01
      vertex -2.000000e+01 1.224647e-15 8.000000e+01
    endloop
  endfacet
  facet normal -9.474884e-01 2.844634e-03 3.197774e-01
    outer loop
      vertex -4.700000e+01 2.877920e-15 0.000000e+00
      vertex -4.400000e+01 2.694223e-15 8.888889e+00
      vertex -4.397397e+01 8.669825e+00 8.888889e+00
    endloop
  endfacet
  facet normal 9.466491e-01 0.000000e+00 -3.222661e-01
    outer loop
      vertex -4.700000e+01 2.877920e-15 0.000000e+00
      vertex -4.700000e+01 9.400000e+00 0.000000e+00
      vertex -4.397397e+01 8.669825e+00 8.888889e+00
    endloop
  endfacet
  facet normal -9.474740e-01 6.207327e-03 3.197725e-01
    outer loop
      vertex -4.400000e+01 2.694223e-15 8.888889e+00
      vertex -4.100000e+01 2.510526e-15 1.777778e+01
      vertex -4.094798e+01 7.939650e+00 1.777778e+01
    endloop
  endfacet
  facet normal 9.465754e-01 -2.841893e-03 -3.224700e-01
    outer loop
      vertex -4.400000e+01 2.694223e-15 8.888889e+00
      vertex -4.397397e+01 8.669825e+00 8.888889e+00
      vertex -4.094798e+01 7.939650e+00 1.777778e+01
    endloop
  endfacet
  facet normal -9.474426e-01 1.023542e-02 3.197619e-01
    outer loop
      vertex -4.100000e+01 2.510526e-15 1.777778e+01
      vertex -3.800000e+01 2.326829e-15 2.666667e+01
      vertex -3.792211e+01 7.209476e+00 2.666667e+01
    endloop
  endfacet
  facet normal 9.464806e-01 -6.200819e-03 -3.227011e-01
    outer loop
      vertex -4.100000e+01 2.510526e-15 1.777778e+01
      vertex -4.094798e+01 7.939650e+00 1.777778e+01
      vertex -3.792211e+01 7.209476e+00 2.666667e+01
    endloop
  endfacet
  facet normal -9.473838e-01 1.513316e-02 3.197420e-01
    outer loop
      vertex -3.800000e+01 2.326829e-15 2.666667e+01
      vertex -3.500000e+01 2.143132e-15 3.555556e+01
      vertex -3.489650e+01 6.479301e+00 3.555556e+01
    endloop
  endfacet
  facet normal 9.463567e-01 -1.022369e-02 -3.229620e-01
    outer loop
      vertex -3.800000e+01 2.326829e-15 2.666667e+01
      vertex -3.792211e+01 7.209476e+00 2.666667e+01
      vertex -3.489650e+01 6.479301e+00 3.555556e+01
    endloop
  endfacet
  facet normal -9.472796e-01 2.118797e-02 3.197069e-01
    outer loop
      vertex -3.500000e+01 2.143132e-15 3.555556e+01
      vertex -3.200000e+01 1.959435e-15 4.444444e+01
      vertex -3.187141e+01 5.749126e+00 4.444444e+01
    endloop
  endfacet
  facet normal 9.461920e-01 -1.511412e-02 -3.232525e-01
    outer loop
      vertex -3.500000e+01 2.143132e-15 3.555556e+01
      vertex -3.489650e+01 6.479301e+00 3.555556e+01
      vertex -3.187141e+01 5.749126e+00 4.444444e+01
    endloop
  endfacet
  facet normal -9.470991e-01 2.880712e-02 3.196459e-01
    outer loop
      vertex -3.200000e+01 1.959435e-15 4.444444e+01
      vertex -2.900000e+01 1.775738e-15 5.333333e+01
      vertex -2.884734e+01 5.018951e+00 5.333333e+01
    endloop
  endfacet
  facet normal 9.459697e-01 -2.115867e-02 -3.235639e-01
    outer loop
      vertex -3.200000e+01 1.959435e-15 4.444444e+01
      vertex -3.187141e+01 5.749126e+00 4.444444e+01
      vertex -2.884734e+01 5.018951e+00 5.333333e+01
    endloop
  endfacet
  facet normal -9.467877e-01 3.855834e-02 3.195408e-01
    outer loop
      vertex -2.900000e+01 1.775738e-15 5.333333e+01
      vertex -2.600000e+01 1.592041e-15 6.222222e+01
      vertex -2.582534e+01 4.288777e+00 6.222222e+01
    endloop
  endfacet
  facet normal 9.456656e-01 -2.876352e-02 -3.238660e-01
    outer loop
      vertex -2.900000e+01 1.775738e-15 5.333333e+01
      vertex -2.884734e+01 5.018951e+00 5.333333e+01
      vertex -2.582534e+01 4.288777e+00 6.222222e+01
    endloop
  endfacet
  facet normal -9.462514e-01 5.116300e-02 3.193598e-01
    outer loop
      vertex -2.600000e+01 1.592041e-15 6.222222e+01
      vertex -2.300000e+01 1.408344e-15 7.111111e+01
      vertex -2.280759e+01 3.558602e+00 7.111111e+01
    endloop
  endfacet
  facet normal 9.452492e-01 -3.849568e-02 -3.240712e-01
    outer loop
      vertex -2.600000e+01 1.592041e-15 6.222222e+01
      vertex -2.582534e+01 4.288777e+00 6.222222e+01
      vertex -2.280759e+01 3.558602e+00 7.111111e+01
    endloop
  endfacet
  facet normal -9.453515e-01 6.718406e-02 3.190561e-01
    outer loop
      vertex -2.300000e+01 1.408344e-15 7.111111e+01
      vertex -2.000000e+01 1.224647e-15 8.000000e+01
      vertex -1.979899e+01 2.828427e+00 8.000000e+01
    endloop
  endfacet
  facet normal 9.446961e-01 -5.107891e-02 -3.239447e-01
    outer loop
      vertex -2.300000e+01 1.408344e-15 7.111111e+01
      vertex -2.280759e+01 3.558602e+00 7.111111e+01
      vertex -1.979899e+01 2.828427e+00 8.000000e+01
    endloop
  endfacet
  facet normal -9.464009e-01 8.524414e-03 3.228819e-01
    outer loop
      vertex -4.700000e+01 9.400000e+00 0.000000e+00
      vertex -4.397397e+01 8.669825e+00 8.888889e+00
      vertex -4.389588e+01 1.733965e+01 8.888889e+00
    endloop
  endfacet
  facet normal 9.440896e-01 0.000000e+00 -3.296889e-01
    outer loop
      vertex -4.700000e+01 9.400000e+00 0.000000e+00
      vertex -4.700000e+01 1.880000e+01 0.000000e+00
      vertex -4.389588e+01 1.733965e+01 8.888889e+00
    endloop
  endfacet
  facet normal -9.460198e-01 1.859659e-02 3.235750e-01
    outer loop
      vertex -4.397397e+01 8.669825e+00 8.888889e+00
      vertex -4.094798e+01 7.939650e+00 1.777778e+01
      vertex -4.079191e+01 1.587930e+01 1.777778e+01
    endloop
  endfacet
  facet normal 9.436250e-01 -8.499411e-03 -3.309072e-01
    outer loop
      vertex -4.397397e+01 8.669825e+00 8.888889e+00
      vertex -4.389588e+01 1.733965e+01 8.888889e+00
      vertex -4.079191e+01 1.587930e+01 1.777778e+01
    endloop
  endfacet
  facet normal -9.454385e-01 3.065561e-02 3.243552e-01
    outer loop
      vertex -4.094798e+01 7.939650e+00 1.777778e+01
      vertex -3.792211e+01 7.209476e+00 2.666667e+01
      vertex -3.768835e+01 1.441895e+01 2.666667e+01
    endloop
  endfacet
  facet normal 9.429943e-01 -1.853712e-02 -3.322923e-01
    outer loop
      vertex -4.094798e+01 7.939650e+00 1.777778e+01
      vertex -4.079191e+01 1.587930e+01 1.777778e+01
      vertex -3.768835e+01 1.441895e+01 2.666667e+01
    endloop
  endfacet
  facet normal -9.445492e-01 4.530992e-02 3.252289e-01
    outer loop
      vertex -3.792211e+01 7.209476e+00 2.666667e+01
      vertex -3.489650e+01 6.479301e+00 3.555556e+01
      vertex -3.458569e+01 1.295860e+01 3.555556e+01
    endloop
  endfacet
  facet normal 9.421252e-01 -3.054818e-02 -3.338667e-01
    outer loop
      vertex -3.792211e+01 7.209476e+00 2.666667e+01
      vertex -3.768835e+01 1.441895e+01 2.666667e+01
      vertex -3.458569e+01 1.295860e+01 3.555556e+01
    endloop
  endfacet
  facet normal -9.431737e-01 6.341549e-02 3.261930e-01
    outer loop
      vertex -3.489650e+01 6.479301e+00 3.555556e+01
      vertex -3.187141e+01 5.749126e+00 4.444444e+01
      vertex -3.148486e+01 1.149825e+01 4.444444e+01
    endloop
  endfacet
  facet normal 9.409068e-01 -4.513519e-02 -3.356446e-01
    outer loop
      vertex -3.489650e+01 6.479301e+00 3.555556e+01
      vertex -3.458569e+01 1.295860e+01 3.555556e+01
      vertex -3.148486e+01 1.149825e+01 4.444444e+01
    endloop
  endfacet
  facet normal -9.410102e-01 8.618559e-02 3.272183e-01
    outer loop
      vertex -3.187141e+01 5.749126e+00 4.444444e+01
      vertex -2.884734e+01 5.018951e+00 5.333333e+01
      vertex -2.838767e+01 1.003790e+01 5.333333e+01
    endloop
  endfacet
  facet normal 9.391651e-01 -6.314597e-02 -3.376115e-01
    outer loop
      vertex -3.187141e+01 5.749126e+00 4.444444e+01
      vertex -3.148486e+01 1.149825e+01 4.444444e+01
      vertex -2.838767e+01 1.003790e+01 5.333333e+01
    endloop
  endfacet
  facet normal -9.375389e-01 1.153139e-01 3.282127e-01
    outer loop
      vertex -2.884734e+01 5.018951e+00 5.333333e+01
      vertex -2.582534e+01 4.288777e+00 6.222222e+01
      vertex -2.529783e+01 8.577553e+00 6.222222e+01
    endloop
  endfacet
  facet normal 9.366246e-01 -8.578392e-02 -3.396697e-01
    outer loop
      vertex -2.884734e+01 5.018951e+00 5.333333e+01
      vertex -2.838767e+01 1.003790e+01 5.333333e+01
      vertex -2.529783e+01 8.577553e+00 6.222222e+01
    endloop
  endfacet
  facet normal -9.318817e-01 1.529629e-01 3.289358e-01
    outer loop
      vertex -2.582534e+01 4.288777e+00 6.222222e+01
      vertex -2.280759e+01 3.558602e+00 7.111111e+01
      vertex -2.222347e+01 7.117204e+00 7.111111e+01
    endloop
  endfacet
  facet normal 9.328546e-01 -1.147378e-01 -3.414932e-01
    outer loop
      vertex -2.582534e+01 4.288777e+00 6.222222e+01
      vertex -2.529783e+01 8.577553e+00 6.222222e+01
      vertex -2.222347e+01 7.117204e+00 7.111111e+01
    endloop
  endfacet
  facet normal -9.227810e-01 2.008617e-01 3.288310e-01
    outer loop
      vertex -2.280759e+01 3.558602e+00 7.111111e+01
      vertex -1.979899e+01 2.828427e+00 8.000000e+01
      vertex -1.918333e+01 5.656854e+00 8.000000e+01
    endloop
  endfacet
  facet normal 9.272419e-01 -1.522013e-01 -3.421364e-01
    outer loop
      vertex -2.280759e+01 3.558602e+00 7.111111e+01
      vertex -2.222347e+01 7.117204e+00 7.111111e+01
      vertex -1.918333e+01 5.656854e+00 8.000000e+01
    endloop
  endfacet
  facet normal -9.432685e-01 1.416135e-02 3.317287e-01
    outer loop
      vertex -4.700000e+01 1.880000e+01 0.000000e+00
      vertex -4.389588e+01 1.733965e+01 8.888889e+00
      vertex -4.376572e+01 2.600948e+01 8.888889e+00
    endloop
  endfacet
  facet normal 9.397269e-01 0.000000e+00 -3.419258e-01
    outer loop
      vertex -4.700000e+01 1.880000e+01 0.000000e+00
      vertex -4.700000e+01 2.820000e+01 0.000000e+00
      vertex -4.376572e+01 2.600948e+01 8.888889e+00
    endloop
  endfacet
  facet normal -9.420549e-01 3.087503e-02 3.340350e-01
    outer loop
      vertex -4.389588e+01 1.733965e+01 8.888889e+00
      vertex -4.079191e+01 1.587930e+01 1.777778e+01
      vertex -4.053169e+01 2.381895e+01 1.777778e+01
    endloop
  endfacet
  facet normal 9.385217e-01 -1.409009e-02 -3.449327e-01
    outer loop
      vertex -4.389588e+01 1.733965e+01 8.888889e+00
      vertex -4.376572e+01 2.600948e+01 8.888889e+00
      vertex -4.053169e+01 2.381895e+01 1.777778e+01
    endloop
  endfacet
  facet normal -9.402565e-01 5.086020e-02 3.366467e-01
    outer loop
      vertex -4.079191e+01 1.587930e+01 1.777778e+01
      vertex -3.768835e+01 1.441895e+01 2.666667e+01
      vertex -3.729838e+01 2.162843e+01 2.666667e+01
    endloop
  endfacet
  facet normal 9.368620e-01 -3.070483e-02 -3.483487e-01
    outer loop
      vertex -4.079191e+01 1.587930e+01 1.777778e+01
      vertex -4.053169e+01 2.381895e+01 1.777778e+01
      vertex -3.729838e+01 2.162843e+01 2.666667e+01
    endloop
  endfacet
  facet normal -9.375671e-01 7.511215e-02 3.395970e-01
    outer loop
      vertex -3.768835e+01 1.441895e+01 2.666667e+01
      vertex -3.458569e+01 1.295860e+01 3.555556e+01
      vertex -3.406661e+01 1.943790e+01 3.555556e+01
    endloop
  endfacet
  facet normal 9.345458e-01 -5.055130e-02 -3.522339e-01
    outer loop
      vertex -3.768835e+01 1.441895e+01 2.666667e+01
      vertex -3.729838e+01 2.162843e+01 2.666667e+01
      vertex -3.406661e+01 1.943790e+01 3.555556e+01
    endloop
  endfacet
  facet normal -9.334836e-01 1.050297e-01 3.428951e-01
    outer loop
      vertex -3.458569e+01 1.295860e+01 3.555556e+01
      vertex -3.148486e+01 1.149825e+01 4.444444e+01
      vertex -3.083800e+01 1.724738e+01 4.444444e+01
    endloop
  endfacet
  facet normal 9.312596e-01 -7.460684e-02 -3.566361e-01
    outer loop
      vertex -3.458569e+01 1.295860e+01 3.555556e+01
      vertex -3.406661e+01 1.943790e+01 3.555556e+01
      vertex -3.083800e+01 1.724738e+01 4.444444e+01
    endloop
  endfacet
  facet normal -9.271559e-01 1.425961e-01 3.464799e-01
    outer loop
      vertex -3.148486e+01 1.149825e+01 4.444444e+01
      vertex -2.838767e+01 1.003790e+01 5.333333e+01
      vertex -2.761575e+01 1.505685e+01 5.333333e+01
    endloop
  endfacet
  facet normal 9.265064e-01 -1.042447e-01 -3.615509e-01
    outer loop
      vertex -3.148486e+01 1.149825e+01 4.444444e+01
      vertex -3.083800e+01 1.724738e+01 4.444444e+01
      vertex -2.761575e+01 1.505685e+01 5.333333e+01
    endloop
  endfacet
  facet normal -9.171159e-01 1.905882e-01 3.501066e-01
    outer loop
      vertex -2.838767e+01 1.003790e+01 5.333333e+01
      vertex -2.529783e+01 8.577553e+00 6.222222e+01
      vertex -2.440657e+01 1.286633e+01 6.222222e+01
    endloop
  endfacet
  facet normal 9.194833e-01 -1.414160e-01 -3.668134e-01
    outer loop
      vertex -2.838767e+01 1.003790e+01 5.333333e+01
      vertex -2.761575e+01 1.505685e+01 5.333333e+01
      vertex -2.440657e+01 1.286633e+01 6.222222e+01
    endloop
  endfacet
  facet normal -9.008529e-01 2.525933e-01 3.530731e-01
    outer loop
      vertex -2.529783e+01 8.577553e+00 6.222222e+01
      vertex -2.222347e+01 7.117204e+00 7.111111e+01
      vertex -2.122566e+01 1.067581e+01 7.111111e+01
    endloop
  endfacet
  facet normal 9.088956e-01 -1.888799e-01 -3.717973e-01
    outer loop
      vertex -2.529783e+01 8.577553e+00 6.222222e+01
      vertex -2.440657e+01 1.286633e+01 6.222222e+01
      vertex -2.122566e+01 1.067581e+01 7.111111e+01
    endloop
  endfacet
  facet normal -8.746166e-01 3.316596e-01 3.536208e-01
    outer loop
      vertex -2.222347e+01 7.117204e+00 7.111111e+01
      vertex -1.918333e+01 5.656854e+00 8.000000e+01
      vertex -1.811077e+01 8.485281e+00 8.000000e+01
    endloop
  endfacet
  facet normal 8.927788e-01 -2.503293e-01 -3.745415e-01
    outer loop
      vertex -2.222347e+01 7.117204e+00 7.111111e+01
      vertex -2.122566e+01 1.067581e+01 7.111111e+01
      vertex -1.811077e+01 8.485281e+00 8.000000e+01
    endloop
  endfacet
  facet normal -9.379732e-01 1.971673e-02 3.461466e-01
    outer loop
      vertex -4.700000e+01 2.820000e+01 0.000000e+00
      vertex -4.376572e+01 2.600948e+01 8.888889e+00
      vertex -4.358347e+01 3.467930e+01 8.888889e+00
    endloop
  endfacet
  facet normal 9.334257e-01 0.000000e+00 -3.587707e-01
    outer loop
      vertex -4.700000e+01 2.820000e+01 0.000000e+00
      vertex -4.700000e+01 3.760000e+01 0.000000e+00
      vertex -4.358347e+01 3.467930e+01 8.888889e+00
    endloop
  endfacet
  facet normal -9.354220e-01 4.294285e-02 3.509152e-01
    outer loop
      vertex -4.376572e+01 2.600948e+01 8.888889e+00
      vertex -4.053169e+01 2.381895e+01 1.777778e+01
      vertex -4.016720e+01 3.175860e+01 1.777778e+01
    endloop
  endfacet
  facet normal 9.310856e-01 -1.957195e-02 -3.642754e-01
    outer loop
      vertex -4.376572e+01 2.600948e+01 8.888889e+00
      vertex -4.358347e+01 3.467930e+01 8.888889e+00
      vertex -4.016720e+01 3.175860e+01 1.777778e+01
    endloop
  endfacet
  facet normal -9.316914e-01 7.065498e-02 3.563129e-01
    outer loop
      vertex -4.053169e+01 2.381895e+01 1.777778e+01
      vertex -3.729838e+01 2.162843e+01 2.666667e+01
      vertex -3.675164e+01 2.883790e+01 2.666667e+01
    endloop
  endfacet
  facet normal 9.278467e-01 -4.259508e-02 -3.705215e-01
    outer loop
      vertex -4.053169e+01 2.381895e+01 1.777778e+01
      vertex -4.016720e+01 3.175860e+01 1.777778e+01
      vertex -3.675164e+01 2.883790e+01 2.666667e+01
    endloop
  endfacet
  facet normal -9.261750e-01 1.042009e-01 3.624115e-01
    outer loop
      vertex -3.729838e+01 2.162843e+01 2.666667e+01
      vertex -3.406661e+01 1.943790e+01 3.555556e+01
      vertex -3.333764e+01 2.591720e+01 3.555556e+01
    endloop
  endfacet
  facet normal 9.233071e-01 -7.001915e-02 -3.776259e-01
    outer loop
      vertex -3.729838e+01 2.162843e+01 2.666667e+01
      vertex -3.675164e+01 2.883790e+01 2.666667e+01
      vertex -3.333764e+01 2.591720e+01 3.555556e+01
    endloop
  endfacet
  facet normal -9.178784e-01 1.454706e-01 3.692390e-01
    outer loop
      vertex -3.406661e+01 1.943790e+01 3.555556e+01
      vertex -3.083800e+01 1.724738e+01 4.444444e+01
      vertex -2.992685e+01 2.299650e+01 4.444444e+01
    endloop
  endfacet
  facet normal 9.168407e-01 -1.031507e-01 -3.856982e-01
    outer loop
      vertex -3.406661e+01 1.943790e+01 3.555556e+01
      vertex -3.333764e+01 2.591720e+01 3.555556e+01
      vertex -2.992685e+01 2.299650e+01 4.444444e+01
    endloop
  endfacet
  facet normal -9.051181e-01 1.971428e-01 3.766908e-01
    outer loop
      vertex -3.083800e+01 1.724738e+01 4.444444e+01
      vertex -2.761575e+01 1.505685e+01 5.333333e+01
      vertex -2.652258e+01 2.007581e+01 5.333333e+01
    endloop
  endfacet
  facet normal 9.074460e-01 -1.438172e-01 -3.947891e-01
    outer loop
      vertex -3.083800e+01 1.724738e+01 4.444444e+01
      vertex -2.992685e+01 2.299650e+01 4.444444e+01
      vertex -2.652258e+01 2.007581e+01 5.333333e+01
    endloop
  endfacet
  facet normal -8.849556e-01 2.629865e-01 3.843068e-01
    outer loop
      vertex -2.761575e+01 1.505685e+01 5.333333e+01
      vertex -2.440657e+01 1.286633e+01 6.222222e+01
      vertex -2.313206e+01 1.715511e+01 6.222222e+01
    endloop
  endfacet
  facet normal 8.934802e-01 -1.946080e-01 -4.047478e-01
    outer loop
      vertex -2.761575e+01 1.505685e+01 5.333333e+01
      vertex -2.652258e+01 2.007581e+01 5.333333e+01
      vertex -2.313206e+01 1.715511e+01 6.222222e+01
    endloop
  endfacet
  facet normal -8.522058e-01 3.479736e-01 3.907169e-01
    outer loop
      vertex -2.440657e+01 1.286633e+01 6.222222e+01
      vertex -2.122566e+01 1.067581e+01 7.111111e+01
      vertex -1.977261e+01 1.423441e+01 7.111111e+01
    endloop
  endfacet
  facet normal 8.722098e-01 -2.591987e-01 -4.148086e-01
    outer loop
      vertex -2.440657e+01 1.286633e+01 6.222222e+01
      vertex -2.313206e+01 1.715511e+01 6.222222e+01
      vertex -1.977261e+01 1.423441e+01 7.111111e+01
    endloop
  endfacet
  facet normal -7.983712e-01 4.568059e-01 3.923415e-01
    outer loop
      vertex -2.122566e+01 1.067581e+01 7.111111e+01
      vertex -1.811077e+01 8.485281e+00 8.000000e+01
      vertex -1.649242e+01 1.131371e+01 8.000000e+01
    endloop
  endfacet
  facet normal 8.392043e-01 -3.426648e-01 -4.222760e-01
    outer loop
      vertex -2.122566e+01 1.067581e+01 7.111111e+01
      vertex -1.977261e+01 1.423441e+01 7.111111e+01
      vertex -1.649242e+01 1.131371e+01 8.000000e+01
    endloop
  endfacet
  facet normal -9.303357e-01 2.514730e-02 3.658458e-01
    outer loop
      vertex -4.700000e+01 3.760000e+01 0.000000e+00
      vertex -4.358347e+01 3.467930e+01 8.888889e+00
      vertex -4.334913e+01 4.334913e+01 8.888889e+00
    endloop
  endfacet
  facet normal 9.250169e-01 0.000000e+00 -3.799260e-01
    outer loop
      vertex -4.700000e+01 3.760000e+01 0.000000e+00
      vertex -4.700000e+01 4.700000e+01 0.000000e+00
      vertex -4.334913e+01 4.334913e+01 8.888889e+00
    endloop
  endfacet
  facet normal -9.258891e-01 5.468721e-02 3.738164e-01
    outer loop
      vertex -4.358347e+01 3.467930e+01 8.888889e+00
      vertex -4.016720e+01 3.175860e+01 1.777778e+01
      vertex -3.969825e+01 3.969825e+01 1.777778e+01
    endloop
  endfacet
  facet normal 9.210949e-01 -2.489752e-02 -3.885411e-01
    outer loop
      vertex -4.358347e+01 3.467930e+01 8.888889e+00
      vertex -4.334913e+01 4.334913e+01 8.888889e+00
      vertex -3.969825e+01 3.969825e+01 1.777778e+01
    endloop
  endfacet
  facet normal -9.194500e-01 8.981740e-02 3.828113e-01
    outer loop
      vertex -4.016720e+01 3.175860e+01 1.777778e+01
      vertex -3.675164e+01 2.883790e+01 2.666667e+01
      vertex -3.604738e+01 3.604738e+01 2.666667e+01
    endloop
  endfacet
  facet normal 9.156609e-01 -5.408308e-02 -3.982965e-01
    outer loop
      vertex -4.016720e+01 3.175860e+01 1.777778e+01
      vertex -3.969825e+01 3.969825e+01 1.777778e+01
      vertex -3.604738e+01 3.604738e+01 2.666667e+01
    endloop
  endfacet
  facet normal -9.100121e-01 1.321822e-01 3.929451e-01
    outer loop
      vertex -3.675164e+01 2.883790e+01 2.666667e+01
      vertex -3.333764e+01 2.591720e+01 3.555556e+01
      vertex -3.239650e+01 3.239650e+01 3.555556e+01
    endloop
  endfacet
  facet normal 9.080394e-01 -8.870274e-02 -4.093852e-01
    outer loop
      vertex -3.675164e+01 2.883790e+01 2.666667e+01
      vertex -3.604738e+01 3.604738e+01 2.666667e+01
      vertex -3.239650e+01 3.239650e+01 3.555556e+01
    endloop
  endfacet
  facet normal -8.959274e-01 1.840775e-01 4.042643e-01
    outer loop
      vertex -3.333764e+01 2.591720e+01 3.555556e+01
      vertex -2.992685e+01 2.299650e+01 4.444444e+01
      vertex -2.874563e+01 2.874563e+01 4.444444e+01
    endloop
  endfacet
  facet normal 8.971739e-01 -1.303174e-01 -4.220146e-01
    outer loop
      vertex -3.333764e+01 2.591720e+01 3.555556e+01
      vertex -3.239650e+01 3.239650e+01 3.555556e+01
      vertex -2.874563e+01 2.874563e+01 4.444444e+01
    endloop
  endfacet
  facet normal -8.743908e-01 2.487523e-01 4.166090e-01
    outer loop
      vertex -2.992685e+01 2.299650e+01 4.444444e+01
      vertex -2.652258e+01 2.007581e+01 5.333333e+01
      vertex -2.509476e+01 2.509476e+01 5.333333e+01
    endloop
  endfacet
  facet normal 8.813571e-01 -1.810839e-01 -4.363693e-01
    outer loop
      vertex -2.992685e+01 2.299650e+01 4.444444e+01
      vertex -2.874563e+01 2.874563e+01 4.444444e+01
      vertex -2.509476e+01 2.509476e+01 5.333333e+01
    endloop
  endfacet
  facet normal -8.404168e-01 3.308096e-01 4.292605e-01
    outer loop
      vertex -2.652258e+01 2.007581e+01 5.333333e+01
      vertex -2.313206e+01 1.715511e+01 6.222222e+01
      vertex -2.144388e+01 2.144388e+01 6.222222e+01
    endloop
  endfacet
  facet normal 8.577260e-01 -2.440114e-01 -4.525092e-01
    outer loop
      vertex -2.652258e+01 2.007581e+01 5.333333e+01
      vertex -2.509476e+01 2.509476e+01 5.333333e+01
      vertex -2.144388e+01 2.144388e+01 6.222222e+01
    endloop
  endfacet
  facet normal -7.847396e-01 4.365386e-01 4.400203e-01
    outer loop
      vertex -2.313206e+01 1.715511e+01 6.222222e+01
      vertex -1.977261e+01 1.423441e+01 7.111111e+01
      vertex -1.779301e+01 1.779301e+01 7.111111e+01
    endloop
  endfacet
  facet normal 8.212803e-01 -3.232770e-01 -4.700964e-01
    outer loop
      vertex -2.313206e+01 1.715511e+01 6.222222e+01
      vertex -2.144388e+01 2.144388e+01 6.222222e+01
      vertex -1.779301e+01 1.779301e+01 7.111111e+01
    endloop
  endfacet
  facet normal -6.896201e-01 5.730411e-01 4.427731e-01
    outer loop
      vertex -1.977261e+01 1.423441e+01 7.111111e+01
      vertex -1.649242e+01 1.131371e+01 8.000000e+01
      vertex -1.414214e+01 1.414214e+01 8.000000e+01
    endloop
  endfacet
  facet normal 7.629294e-01 -4.244059e-01 -4.876663e-01
    outer loop
      vertex -1.977261e+01 1.423441e+01 7.111111e+01
      vertex -1.779301e+01 1.779301e+01 7.111111e+01
      vertex -1.414214e+01 1.414214e+01 8.000000e+01
    endloop
  endfacet
endsolid generated_mesh
