solid circular_cap
  facet normal 0.000000e+00 0.000000e+00 1.000000e+00
    outer loop
      vertex -2.000000e+01 -9.393398e+00 7.000000e+01
      vertex -1.646447e+01 -9.393398e+00 7.000000e+01
      vertex -1.646447e+01 -5.857864e+00 7.000000e+01
    endloop
  endfacet
  facet normal 0.000000e+00 0.000000e+00 1.000000e+00
    outer loop
      vertex -2.000000e+01 -5.857864e+00 7.000000e+01
      vertex -1.646447e+01 -5.857864e+00 7.000000e+01
      vertex -1.646447e+01 -2.322330e+00 7.000000e+01
    endloop
  endfacet
  facet normal 0.000000e+00 0.000000e+00 1.000000e+00
    outer loop
      vertex -2.000000e+01 -5.857864e+00 7.000000e+01
      vertex -1.646447e+01 -2.322330e+00 7.000000e+01
      vertex -2.000000e+01 -2.322330e+00 7.000000e+01
    endloop
  endfacet
  facet normal 0.000000e+00 0.000000e+00 1.000000e+00
    outer loop
      vertex -2.000000e+01 -2.322330e+00 7.000000e+01
      vertex -1.646447e+01 -2.322330e+00 7.000000e+01
      vertex -1.646447e+01 1.213203e+00 7.000000e+01
    endloop
  endfacet
  facet normal 0.000000e+00 0.000000e+00 1.000000e+00
    outer loop
      vertex -2.000000e+01 -2.322330e+00 7.000000e+01
      vertex -1.646447e+01 1.213203e+00 7.000000e+01
      vertex -2.000000e+01 1.213203e+00 7.000000e+01
    endloop
  endfacet
  facet normal 0.000000e+00 0.000000e+00 1.000000e+00
    outer loop
      vertex -2.000000e+01 1.213203e+00 7.000000e+01
      vertex -1.646447e+01 1.213203e+00 7.000000e+01
      vertex -1.646447e+01 4.748737e+00 7.000000e+01
    endloop
  endfacet
  facet normal 0.000000e+00 0.000000e+00 1.000000e+00
    outer loop
      vertex -2.000000e+01 1.213203e+00 7.000000e+01
      vertex -1.646447e+01 4.748737e+00 7.000000e+01
      vertex -2.000000e+01 4.748737e+00 7.000000e+01
    endloop
  endfacet
  facet normal 0.000000e+00 0.000000e+00 1.000000e+00
    outer loop
      vertex -2.000000e+01 4.748737e+00 7.000000e+01
      vertex -1.646447e+01 4.748737e+00 7.000000e+01
      vertex -1.646447e+01 8.284271e+00 7.000000e+01
    endloop
  endfacet
  facet normal 0.000000e+00 0.000000e+00 1.000000e+00
    outer loop
      vertex -1.646447e+01 -1.292893e+01 7.000000e+01
      vertex -1.292893e+01 -1.292893e+01 7.000000e+01
      vertex -1.292893e+01 -9.393398e+00 7.000000e+01
    endloop
  endfacet
  facet normal 0.000000e+00 0.000000e+00 1.000000e+00
    outer loop
      vertex -1.646447e+01 -1.292893e+01 7.000000e+01
      vertex -1.292893e+01 -9.393398e+00 7.000000e+01
      vertex -1.646447e+01 -9.393398e+00 7.000000e+01
    endloop
  endfacet
  facet normal 0.000000e+00 0.000000e+00 1.000000e+00
    outer loop
      vertex -1.646447e+01 -9.393398e+00 7.000000e+01
      vertex -1.292893e+01 -9.393398e+00 7.000000e+01
      vertex -1.292893e+01 -5.857864e+00 7.000000e+01
    endloop
  endfacet
  facet normal 0.000000e+00 0.000000e+00 1.000000e+00
    outer loop
      vertex -1.646447e+01 -9.393398e+00 7.000000e+01
      vertex -1.292893e+01 -5.857864e+00 7.000000e+01
      vertex -1.646447e+01 -5.857864e+00 7.000000e+01
    endloop
  endfacet
  facet normal 0.000000e+00 0.000000e+00 1.000000e+00
    outer loop
      vertex -1.646447e+01 -5.857864e+00 7.000000e+01
      vertex -1.292893e+01 -5.857864e+00 7.000000e+01
      vertex -1.292893e+01 -2.322330e+00 7.000000e+01
    endloop
  endfacet
  facet normal 0.000000e+00 0.000000e+00 1.000000e+00
    outer loop
      vertex -1.646447e+01 -5.857864e+00 7.000000e+01
      vertex -1.292893e+01 -2.322330e+00 7.000000e+01
      vertex -1.646447e+01 -2.322330e+00 7.000000e+01
    endloop
  endfacet
  facet normal 0.000000e+00 0.000000e+00 1.000000e+00
    outer loop
      vertex -1.646447e+01 -2.322330e+00 7.000000e+01
      vertex -1.292893e+01 -2.322330e+00 7.000000e+01
      vertex -1.292893e+01 1.213203e+00 7.000000e+01
    endloop
  endfacet
  facet normal 0.000000e+00 0.000000e+00 1.000000e+00
    outer loop
      vertex -1.646447e+01 -2.322330e+00 7.000000e+01
      vertex -1.292893e+01 1.213203e+00 7.000000e+01
      vertex -1.646447e+01 1.213203e+00 7.000000e+01
    endloop
  endfacet
  facet normal 0.000000e+00 0.000000e+00 1.000000e+00
    outer loop
      vertex -1.646447e+01 1.213203e+00 7.000000e+01
      vertex -1.292893e+01 1.213203e+00 7.000000e+01
      vertex -1.292893e+01 4.748737e+00 7.000000e+01
    endloop
  endfacet
  facet normal 0.000000e+00 0.000000e+00 1.000000e+00
    outer loop
      vertex -1.646447e+01 1.213203e+00 7.000000e+01
      vertex -1.292893e+01 4.748737e+00 7.000000e+01
      vertex -1.646447e+01 4.748737e+00 7.000000e+01
    endloop
  endfacet
  facet normal 0.000000e+00 0.000000e+00 1.000000e+00
    outer loop
      vertex -1.646447e+01 4.748737e+00 7.000000e+01
      vertex -1.292893e+01 4.748737e+00 7.000000e+01
      vertex -1.292893e+01 8.284271e+00 7.000000e+01
    endloop
  endfacet
  facet normal 0.000000e+00 0.000000e+00 1.000000e+00
    outer loop
      vertex -1.646447e+01 4.748737e+00 7.000000e+01
      vertex -1.292893e+01 8.284271e+00 7.000000e+01
      vertex -1.646447e+01 8.284271e+00 7.000000e+01
    endloop
  endfacet
  facet normal 0.000000e+00 0.000000e+00 1.000000e+00
    outer loop
      vertex -1.646447e+01 8.284271e+00 7.000000e+01
      vertex -1.292893e+01 8.284271e+00 7.000000e+01
      vertex -1.292893e+01 1.181981e+01 7.000000e+01
    endloop
  endfacet
  facet normal 0.000000e+00 0.000000e+00 1.000000e+00
    outer loop
      vertex -1.646447e+01 8.284271e+00 7.000000e+01
      vertex -1.292893e+01 1.181981e+01 7.000000e+01
      vertex -1.646447e+01 1.181981e+01 7.000000e+01
    endloop
  endfacet
  facet normal 0.000000e+00 0.000000e+00 1.000000e+00
    outer loop
      vertex -1.646447e+01 1.181981e+01 7.000000e+01
      vertex -1.292893e+01 1.181981e+01 7.000000e+01
      vertex -1.292893e+01 1.535534e+01 7.000000e+01
    endloop
  endfacet
  facet normal 0.000000e+00 0.000000e+00 1.000000e+00
    outer loop
      vertex -1.292893e+01 -1.646447e+01 7.000000e+01
      vertex -9.393398e+00 -1.646447e+01 7.000000e+01
      vertex -9.393398e+00 -1.292893e+01 7.000000e+01
    endloop
  endfacet
  facet normal 0.000000e+00 0.000000e+00 1.000000e+00
    outer loop
      vertex -1.292893e+01 -1.646447e+01 7.000000e+01
      vertex -9.393398e+00 -1.292893e+01 7.000000e+01
      vertex -1.292893e+01 -1.292893e+01 7.000000e+01
    endloop
  endfacet
  facet normal 0.000000e+00 0.000000e+00 1.000000e+00
    outer loop
      vertex -1.292893e+01 -1.292893e+01 7.000000e+01
      vertex -9.393398e+00 -1.292893e+01 7.000000e+01
      vertex -9.393398e+00 -9.393398e+00 7.000000e+01
    endloop
  endfacet
  facet normal 0.000000e+00 0.000000e+00 1.000000e+00
    outer loop
      vertex -1.292893e+01 -1.292893e+01 7.000000e+01
      vertex -9.393398e+00 -9.393398e+00 7.000000e+01
      vertex -1.292893e+01 -9.393398e+00 7.000000e+01
    endloop
  endfacet
  facet normal 0.000000e+00 0.000000e+00 1.000000e+00
    outer loop
      vertex -1.292893e+01 -9.393398e+00 7.000000e+01
      vertex -9.393398e+00 -9.393398e+00 7.000000e+01
      vertex -9.393398e+00 -5.857864e+00 7.000000e+01
    endloop
  endfacet
  facet normal 0.000000e+00 0.000000e+00 1.000000e+00
    outer loop
      vertex -1.292893e+01 -9.393398e+00 7.000000e+01
      vertex -9.393398e+00 -5.857864e+00 7.000000e+01
      vertex -1.292893e+01 -5.857864e+00 7.000000e+01
    endloop
  endfacet
  facet normal 0.000000e+00 0.000000e+00 1.000000e+00
    outer loop
      vertex -1.292893e+01 -5.857864e+00 7.000000e+01
      vertex -9.393398e+00 -5.857864e+00 7.000000e+01
      vertex -9.393398e+00 -2.322330e+00 7.000000e+01
    endloop
  endfacet
  facet normal 0.000000e+00 0.000000e+00 1.000000e+00
    outer loop
      vertex -1.292893e+01 -5.857864e+00 7.000000e+01
      vertex -9.393398e+00 -2.322330e+00 7.000000e+01
      vertex -1.292893e+01 -2.322330e+00 7.000000e+01
    endloop
  endfacet
  facet normal 0.000000e+00 0.000000e+00 1.000000e+00
    outer loop
      vertex -1.292893e+01 -2.322330e+00 7.000000e+01
      vertex -9.393398e+00 -2.322330e+00 7.000000e+01
      vertex -9.393398e+00 1.213203e+00 7.000000e+01
    endloop
  endfacet
  facet normal 0.000000e+00 0.000000e+00 1.000000e+00
    outer loop
      vertex -1.292893e+01 -2.322330e+00 7.000000e+01
      vertex -9.393398e+00 1.213203e+00 7.000000e+01
      vertex -1.292893e+01 1.213203e+00 7.000000e+01
    endloop
  endfacet
  facet normal 0.000000e+00 0.000000e+00 1.000000e+00
    outer loop
      vertex -1.292893e+01 1.213203e+00 7.000000e+01
      vertex -9.393398e+00 1.213203e+00 7.000000e+01
      vertex -9.393398e+00 4.748737e+00 7.000000e+01
    endloop
  endfacet
  facet normal 0.000000e+00 0.000000e+00 1.000000e+00
    outer loop
      vertex -1.292893e+01 1.213203e+00 7.000000e+01
      vertex -9.393398e+00 4.748737e+00 7.000000e+01
      vertex -1.292893e+01 4.748737e+00 7.000000e+01
    endloop
  endfacet
  facet normal 0.000000e+00 0.000000e+00 1.000000e+00
    outer loop
      vertex -1.292893e+01 4.748737e+00 7.000000e+01
      vertex -9.393398e+00 4.748737e+00 7.000000e+01
      vertex -9.393398e+00 8.284271e+00 7.000000e+01
    endloop
  endfacet
  facet normal 0.000000e+00 0.000000e+00 1.000000e+00
    outer loop
      vertex -1.292893e+01 4.748737e+00 7.000000e+01
      vertex -9.393398e+00 8.284271e+00 7.000000e+01
      vertex -1.292893e+01 8.284271e+00 7.000000e+01
    endloop
  endfacet
  facet normal 0.000000e+00 0.000000e+00 1.000000e+00
    outer loop
      vertex -1.292893e+01 8.284271e+00 7.000000e+01
      vertex -9.393398e+00 8.284271e+00 7.000000e+01
      vertex -9.393398e+00 1.181981e+01 7.000000e+01
    endloop
  endfacet
  facet normal 0.000000e+00 0.000000e+00 1.000000e+00
    outer loop
      vertex -1.292893e+01 8.284271e+00 7.000000e+01
      vertex -9.393398e+00 1.181981e+01 7.000000e+01
      vertex -1.292893e+01 1.181981e+01 7.000000e+01
    endloop
  endfacet
  facet normal 0.000000e+00 0.000000e+00 1.000000e+00
    outer loop
      vertex -1.292893e+01 1.181981e+01 7.000000e+01
      vertex -9.393398e+00 1.181981e+01 7.000000e+01
      vertex -9.393398e+00 1.535534e+01 7.000000e+01
    endloop
  endfacet
  facet normal 0.000000e+00 0.000000e+00 1.000000e+00
    outer loop
      vertex -1.292893e+01 1.181981e+01 7.000000e+01
      vertex -9.393398e+00 1.535534e+01 7.000000e+01
      vertex -1.292893e+01 1.535534e+01 7.000000e+01
    endloop
  endfacet
  facet normal 0.000000e+00 0.000000e+00 1.000000e+00
    outer loop
      vertex -1.292893e+01 1.535534e+01 7.000000e+01
      vertex -9.393398e+00 1.535534e+01 7.000000e+01
      vertex -9.393398e+00 1.889087e+01 7.000000e+01
    endloop
  endfacet
  facet normal 0.000000e+00 0.000000e+00 1.000000e+00
    outer loop
      vertex -9.393398e+00 -2.000000e+01 7.000000e+01
      vertex -5.857864e+00 -1.646447e+01 7.000000e+01
      vertex -9.393398e+00 -1.646447e+01 7.000000e+01
    endloop
  endfacet
  facet normal 0.000000e+00 0.000000e+00 1.000000e+00
    outer loop
      vertex -9.393398e+00 -1.646447e+01 7.000000e+01
      vertex -5.857864e+00 -1.646447e+01 7.000000e+01
      vertex -5.857864e+00 -1.292893e+01 7.000000e+01
    endloop
  endfacet
  facet normal 0.000000e+00 0.000000e+00 1.000000e+00
    outer loop
      vertex -9.393398e+00 -1.646447e+01 7.000000e+01
      vertex -5.857864e+00 -1.292893e+01 7.000000e+01
      vertex -9.393398e+00 -1.292893e+01 7.000000e+01
    endloop
  endfacet
  facet normal 0.000000e+00 0.000000e+00 1.000000e+00
    outer loop
      vertex -9.393398e+00 -1.292893e+01 7.000000e+01
      vertex -5.857864e+00 -1.292893e+01 7.000000e+01
      vertex -5.857864e+00 -9.393398e+00 7.000000e+01
    endloop
  endfacet
  facet normal 0.000000e+00 0.000000e+00 1.000000e+00
    outer loop
      vertex -9.393398e+00 -1.292893e+01 7.000000e+01
      vertex -5.857864e+00 -9.393398e+00 7.000000e+01
      vertex -9.393398e+00 -9.393398e+00 7.000000e+01
    endloop
  endfacet
  facet normal 0.000000e+00 0.000000e+00 1.000000e+00
    outer loop
      vertex -9.393398e+00 -9.393398e+00 7.000000e+01
      vertex -5.857864e+00 -9.393398e+00 7.000000e+01
      vertex -5.857864e+00 -5.857864e+00 7.000000e+01
    endloop
  endfacet
  facet normal 0.000000e+00 0.000000e+00 1.000000e+00
    outer loop
      vertex -9.393398e+00 -9.393398e+00 7.000000e+01
      vertex -5.857864e+00 -5.857864e+00 7.000000e+01
      vertex -9.393398e+00 -5.857864e+00 7.000000e+01
    endloop
  endfacet
  facet normal 0.000000e+00 0.000000e+00 1.000000e+00
    outer loop
      vertex -9.393398e+00 -5.857864e+00 7.000000e+01
      vertex -5.857864e+00 -5.857864e+00 7.000000e+01
      vertex -5.857864e+00 -2.322330e+00 7.000000e+01
    endloop
  endfacet
  facet normal 0.000000e+00 0.000000e+00 1.000000e+00
    outer loop
      vertex -9.393398e+00 -5.857864e+00 7.000000e+01
      vertex -5.857864e+00 -2.322330e+00 7.000000e+01
      vertex -9.393398e+00 -2.322330e+00 7.000000e+01
    endloop
  endfacet
  facet normal 0.000000e+00 0.000000e+00 1.000000e+00
    outer loop
      vertex -9.393398e+00 -2.322330e+00 7.000000e+01
      vertex -5.857864e+00 -2.322330e+00 7.000000e+01
      vertex -5.857864e+00 1.213203e+00 7.000000e+01
    endloop
  endfacet
  facet normal 0.000000e+00 0.000000e+00 1.000000e+00
    outer loop
      vertex -9.393398e+00 -2.322330e+00 7.000000e+01
      vertex -5.857864e+00 1.213203e+00 7.000000e+01
      vertex -9.393398e+00 1.213203e+00 7.000000e+01
    endloop
  endfacet
  facet normal 0.000000e+00 0.000000e+00 1.000000e+00
    outer loop
      vertex -9.393398e+00 1.213203e+00 7.000000e+01
      vertex -5.857864e+00 1.213203e+00 7.000000e+01
      vertex -5.857864e+00 4.748737e+00 7.000000e+01
    endloop
  endfacet
  facet normal 0.000000e+00 0.000000e+00 1.000000e+00
    outer loop
      vertex -9.393398e+00 1.213203e+00 7.000000e+01
      vertex -5.857864e+00 4.748737e+00 7.000000e+01
      vertex -9.393398e+00 4.748737e+00 7.000000e+01
    endloop
  endfacet
  facet normal 0.000000e+00 0.000000e+00 1.000000e+00
    outer loop
      vertex -9.393398e+00 4.748737e+00 7.000000e+01
      vertex -5.857864e+00 4.748737e+00 7.000000e+01
      vertex -5.857864e+00 8.284271e+00 7.000000e+01
    endloop
  endfacet
  facet normal 0.000000e+00 0.000000e+00 1.000000e+00
    outer loop
      vertex -9.393398e+00 4.748737e+00 7.000000e+01
      vertex -5.857864e+00 8.284271e+00 7.000000e+01
      vertex -9.393398e+00 8.284271e+00 7.000000e+01
    endloop
  endfacet
  facet normal 0.000000e+00 0.000000e+00 1.000000e+00
    outer loop
      vertex -9.393398e+00 8.284271e+00 7.000000e+01
      vertex -5.857864e+00 8.284271e+00 7.000000e+01
      vertex -5.857864e+00 1.181981e+01 7.000000e+01
    endloop
  endfacet
  facet normal 0.000000e+00 0.000000e+00 1.000000e+00
    outer loop
      vertex -9.393398e+00 8.284271e+00 7.000000e+01
      vertex -5.857864e+00 1.181981e+01 7.000000e+01
      vertex -9.393398e+00 1.181981e+01 7.000000e+01
    endloop
  endfacet
  facet normal 0.000000e+00 0.000000e+00 1.000000e+00
    outer loop
      vertex -9.393398e+00 1.181981e+01 7.000000e+01
      vertex -5.857864e+00 1.181981e+01 7.000000e+01
      vertex -5.857864e+00 1.535534e+01 7.000000e+01
    endloop
  endfacet
  facet normal 0.000000e+00 0.000000e+00 1.000000e+00
    outer loop
      vertex -9.393398e+00 1.181981e+01 7.000000e+01
      vertex -5.857864e+00 1.535534e+01 7.000000e+01
      vertex -9.393398e+00 1.535534e+01 7.000000e+01
    endloop
  endfacet
  facet normal 0.000000e+00 0.000000e+00 1.000000e+00
    outer loop
      vertex -9.393398e+00 1.535534e+01 7.000000e+01
      vertex -5.857864e+00 1.535534e+01 7.000000e+01
      vertex -5.857864e+00 1.889087e+01 7.000000e+01
    endloop
  endfacet
  facet normal 0.000000e+00 0.000000e+00 1.000000e+00
    outer loop
      vertex -9.393398e+00 1.535534e+01 7.000000e+01
      vertex -5.857864e+00 1.889087e+01 7.000000e+01
      vertex -9.393398e+00 1.889087e+01 7.000000e+01
    endloop
  endfacet
  facet normal 0.000000e+00 0.000000e+00 1.000000e+00
    outer loop
      vertex -5.857864e+00 -2.000000e+01 7.000000e+01
      vertex -2.322330e+00 -2.000000e+01 7.000000e+01
      vertex -2.322330e+00 -1.646447e+01 7.000000e+01
    endloop
  endfacet
  facet normal 0.000000e+00 0.000000e+00 1.000000e+00
    outer loop
      vertex -5.857864e+00 -2.000000e+01 7.000000e+01
      vertex -2.322330e+00 -1.646447e+01 7.000000e+01
      vertex -5.857864e+00 -1.646447e+01 7.000000e+01
    endloop
  endfacet
  facet normal 0.000000e+00 0.000000e+00 1.000000e+00
    outer loop
      vertex -5.857864e+00 -1.646447e+01 7.000000e+01
      vertex -2.322330e+00 -1.646447e+01 7.000000e+01
      vertex -2.322330e+00 -1.292893e+01 7.000000e+01
    endloop
  endfacet
  facet normal 0.000000e+00 0.000000e+00 1.000000e+00
    outer loop
      vertex -5.857864e+00 -1.646447e+01 7.000000e+01
      vertex -2.322330e+00 -1.292893e+01 7.000000e+01
      vertex -5.857864e+00 -1.292893e+01 7.000000e+01
    endloop
  endfacet
  facet normal 0.000000e+00 0.000000e+00 1.000000e+00
    outer loop
      vertex -5.857864e+00 -1.292893e+01 7.000000e+01
      vertex -2.322330e+00 -1.292893e+01 7.000000e+01
      vertex -2.322330e+00 -9.393398e+00 7.000000e+01
    endloop
  endfacet
  facet normal 0.000000e+00 0.000000e+00 1.000000e+00
    outer loop
      vertex -5.857864e+00 -1.292893e+01 7.000000e+01
      vertex -2.322330e+00 -9.393398e+00 7.000000e+01
      vertex -5.857864e+00 -9.393398e+00 7.000000e+01
    endloop
  endfacet
  facet normal 0.000000e+00 0.000000e+00 1.000000e+00
    outer loop
      vertex -5.857864e+00 -9.393398e+00 7.000000e+01
      vertex -2.322330e+00 -9.393398e+00 7.000000e+01
      vertex -2.322330e+00 -5.857864e+00 7.000000e+01
    endloop
  endfacet
  facet normal 0.000000e+00 0.000000e+00 1.000000e+00
    outer loop
      vertex -5.857864e+00 -9.393398e+00 7.000000e+01
      vertex -2.322330e+00 -5.857864e+00 7.000000e+01
      vertex -5.857864e+00 -5.857864e+00 7.000000e+01
    endloop
  endfacet
  facet normal 0.000000e+00 0.000000e+00 1.000000e+00
    outer loop
      vertex -5.857864e+00 -5.857864e+00 7.000000e+01
      vertex -2.322330e+00 -5.857864e+00 7.000000e+01
      vertex -2.322330e+00 -2.322330e+00 7.000000e+01
    endloop
  endfacet
  facet normal 0.000000e+00 0.000000e+00 1.000000e+00
    outer loop
      vertex -5.857864e+00 -5.857864e+00 7.000000e+01
      vertex -2.322330e+00 -2.322330e+00 7.000000e+01
      vertex -5.857864e+00 -2.322330e+00 7.000000e+01
    endloop
  endfacet
  facet normal 0.000000e+00 0.000000e+00 1.000000e+00
    outer loop
      vertex -5.857864e+00 -2.322330e+00 7.000000e+01
      vertex -2.322330e+00 -2.322330e+00 7.000000e+01
      vertex -2.322330e+00 1.213203e+00 7.000000e+01
    endloop
  endfacet
  facet normal 0.000000e+00 0.000000e+00 1.000000e+00
    outer loop
      vertex -5.857864e+00 -2.322330e+00 7.000000e+01
      vertex -2.322330e+00 1.213203e+00 7.000000e+01
      vertex -5.857864e+00 1.213203e+00 7.000000e+01
    endloop
  endfacet
  facet normal 0.000000e+00 0.000000e+00 1.000000e+00
    outer loop
      vertex -5.857864e+00 1.213203e+00 7.000000e+01
      vertex -2.322330e+00 1.213203e+00 7.000000e+01
      vertex -2.322330e+00 4.748737e+00 7.000000e+01
    endloop
  endfacet
  facet normal 0.000000e+00 0.000000e+00 1.000000e+00
    outer loop
      vertex -5.857864e+00 1.213203e+00 7.000000e+01
      vertex -2.322330e+00 4.748737e+00 7.000000e+01
      vertex -5.857864e+00 4.748737e+00 7.000000e+01
    endloop
  endfacet
  facet normal 0.000000e+00 0.000000e+00 1.000000e+00
    outer loop
      vertex -5.857864e+00 4.748737e+00 7.000000e+01
      vertex -2.322330e+00 4.748737e+00 7.000000e+01
      vertex -2.322330e+00 8.284271e+00 7.000000e+01
    endloop
  endfacet
  facet normal 0.000000e+00 0.000000e+00 1.000000e+00
    outer loop
      vertex -5.857864e+00 4.748737e+00 7.000000e+01
      vertex -2.322330e+00 8.284271e+00 7.000000e+01
      vertex -5.857864e+00 8.284271e+00 7.000000e+01
    endloop
  endfacet
  facet normal 0.000000e+00 0.000000e+00 1.000000e+00
    outer loop
      vertex -5.857864e+00 8.284271e+00 7.000000e+01
      vertex -2.322330e+00 8.284271e+00 7.000000e+01
      vertex -2.322330e+00 1.181981e+01 7.000000e+01
    endloop
  endfacet
  facet normal 0.000000e+00 0.000000e+00 1.000000e+00
    outer loop
      vertex -5.857864e+00 8.284271e+00 7.000000e+01
      vertex -2.322330e+00 1.181981e+01 7.000000e+01
      vertex -5.857864e+00 1.181981e+01 7.000000e+01
    endloop
  endfacet
  facet normal 0.000000e+00 0.000000e+00 1.000000e+00
    outer loop
      vertex -5.857864e+00 1.181981e+01 7.000000e+01
      vertex -2.322330e+00 1.181981e+01 7.000000e+01
      vertex -2.322330e+00 1.535534e+01 7.000000e+01
    endloop
  endfacet
  facet normal 0.000000e+00 0.000000e+00 1.000000e+00
    outer loop
      vertex -5.857864e+00 1.181981e+01 7.000000e+01
      vertex -2.322330e+00 1.535534e+01 7.000000e+01
      vertex -5.857864e+00 1.535534e+01 7.000000e+01
    endloop
  endfacet
  facet normal 0.000000e+00 0.000000e+00 1.000000e+00
    outer loop
      vertex -5.857864e+00 1.535534e+01 7.000000e+01
      vertex -2.322330e+00 1.535534e+01 7.000000e+01
      vertex -2.322330e+00 1.889087e+01 7.000000e+01
    endloop
  endfacet
  facet normal 0.000000e+00 0.000000e+00 1.000000e+00
    outer loop
      vertex -5.857864e+00 1.535534e+01 7.000000e+01
      vertex -2.322330e+00 1.889087e+01 7.000000e+01
      vertex -5.857864e+00 1.889087e+01 7.000000e+01
    endloop
  endfacet
  facet normal 0.000000e+00 0.000000e+00 1.000000e+00
    outer loop
      vertex -2.322330e+00 -2.000000e+01 7.000000e+01
      vertex 1.213203e+00 -2.000000e+01 7.000000e+01
      vertex 1.213203e+00 -1.646447e+01 7.000000e+01
    endloop
  endfacet
  facet normal 0.000000e+00 0.000000e+00 1.000000e+00
    outer loop
      vertex -2.322330e+00 -2.000000e+01 7.000000e+01
      vertex 1.213203e+00 -1.646447e+01 7.000000e+01
      vertex -2.322330e+00 -1.646447e+01 7.000000e+01
    endloop
  endfacet
  facet normal 0.000000e+00 0.000000e+00 1.000000e+00
    outer loop
      vertex -2.322330e+00 -1.646447e+01 7.000000e+01
      vertex 1.213203e+00 -1.646447e+01 7.000000e+01
      vertex 1.213203e+00 -1.292893e+01 7.000000e+01
    endloop
  endfacet
  facet normal 0.000000e+00 0.000000e+00 1.000000e+00
    outer loop
      vertex -2.322330e+00 -1.646447e+01 7.000000e+01
      vertex 1.213203e+00 -1.292893e+01 7.000000e+01
      vertex -2.322330e+00 -1.292893e+01 7.000000e+01
    endloop
  endfacet
  facet normal 0.000000e+00 0.000000e+00 1.000000e+00
    outer loop
      vertex -2.322330e+00 -1.292893e+01 7.000000e+01
      vertex 1.213203e+00 -1.292893e+01 7.000000e+01
      vertex 1.213203e+00 -9.393398e+00 7.000000e+01
    endloop
  endfacet
  facet normal 0.000000e+00 0.000000e+00 1.000000e+00
    outer loop
      vertex -2.322330e+00 -1.292893e+01 7.000000e+01
      vertex 1.213203e+00 -9.393398e+00 7.000000e+01
      vertex -2.322330e+00 -9.393398e+00 7.000000e+01
    endloop
  endfacet
  facet normal 0.000000e+00 0.000000e+00 1.000000e+00
    outer loop
      vertex -2.322330e+00 -9.393398e+00 7.000000e+01
      vertex 1.213203e+00 -9.393398e+00 7.000000e+01
      vertex 1.213203e+00 -5.857864e+00 7.000000e+01
    endloop
  endfacet
  facet normal 0.000000e+00 0.000000e+00 1.000000e+00
    outer loop
      vertex -2.322330e+00 -9.393398e+00 7.000000e+01
      vertex 1.213203e+00 -5.857864e+00 7.000000e+01
      vertex -2.322330e+00 -5.857864e+00 7.000000e+01
    endloop
  endfacet
  facet normal 0.000000e+00 0.000000e+00 1.000000e+00
    outer loop
      vertex -2.322330e+00 -5.857864e+00 7.000000e+01
      vertex 1.213203e+00 -5.857864e+00 7.000000e+01
      vertex 1.213203e+00 -2.322330e+00 7.000000e+01
    endloop
  endfacet
  facet normal 0.000000e+00 0.000000e+00 1.000000e+00
    outer loop
      vertex -2.322330e+00 -5.857864e+00 7.000000e+01
      vertex 1.213203e+00 -2.322330e+00 7.000000e+01
      vertex -2.322330e+00 -2.322330e+00 7.000000e+01
    endloop
  endfacet
  facet normal 0.000000e+00 0.000000e+00 1.000000e+00
    outer loop
      vertex -2.322330e+00 -2.322330e+00 7.000000e+01
      vertex 1.213203e+00 -2.322330e+00 7.000000e+01
      vertex 1.213203e+00 1.213203e+00 7.000000e+01
    endloop
  endfacet
  facet normal 0.000000e+00 0.000000e+00 1.000000e+00
    outer loop
      vertex -2.322330e+00 -2.322330e+00 7.000000e+01
      vertex 1.213203e+00 1.213203e+00 7.000000e+01
      vertex -2.322330e+00 1.213203e+00 7.000000e+01
    endloop
  endfacet
  facet normal 0.000000e+00 0.000000e+00 1.000000e+00
    outer loop
      vertex -2.322330e+00 1.213203e+00 7.000000e+01
      vertex 1.213203e+00 1.213203e+00 7.000000e+01
      vertex 1.213203e+00 4.748737e+00 7.000000e+01
    endloop
  endfacet
  facet normal 0.000000e+00 0.000000e+00 1.000000e+00
    outer loop
      vertex -2.322330e+00 1.213203e+00 7.000000e+01
      vertex 1.213203e+00 4.748737e+00 7.000000e+01
      vertex -2.322330e+00 4.748737e+00 7.000000e+01
    endloop
  endfacet
  facet normal 0.000000e+00 0.000000e+00 1.000000e+00
    outer loop
      vertex -2.322330e+00 4.748737e+00 7.000000e+01
      vertex 1.213203e+00 4.748737e+00 7.000000e+01
      vertex 1.213203e+00 8.284271e+00 7.000000e+01
    endloop
  endfacet
  facet normal 0.000000e+00 0.000000e+00 1.000000e+00
    outer loop
      vertex -2.322330e+00 4.748737e+00 7.000000e+01
      vertex 1.213203e+00 8.284271e+00 7.000000e+01
      vertex -2.322330e+00 8.284271e+00 7.000000e+01
    endloop
  endfacet
  facet normal 0.000000e+00 0.000000e+00 1.000000e+00
    outer loop
      vertex -2.322330e+00 8.284271e+00 7.000000e+01
      vertex 1.213203e+00 8.284271e+00 7.000000e+01
      vertex 1.213203e+00 1.181981e+01 7.000000e+01
    endloop
  endfacet
  facet normal 0.000000e+00 0.000000e+00 1.000000e+00
    outer loop
      vertex -2.322330e+00 8.284271e+00 7.000000e+01
      vertex 1.213203e+00 1.181981e+01 7.000000e+01
      vertex -2.322330e+00 1.181981e+01 7.000000e+01
    endloop
  endfacet
  facet normal 0.000000e+00 0.000000e+00 1.000000e+00
    outer loop
      vertex -2.322330e+00 1.181981e+01 7.000000e+01
      vertex 1.213203e+00 1.181981e+01 7.000000e+01
      vertex 1.213203e+00 1.535534e+01 7.000000e+01
    endloop
  endfacet
  facet normal 0.000000e+00 0.000000e+00 1.000000e+00
    outer loop
      vertex -2.322330e+00 1.181981e+01 7.000000e+01
      vertex 1.213203e+00 1.535534e+01 7.000000e+01
      vertex -2.322330e+00 1.535534e+01 7.000000e+01
    endloop
  endfacet
  facet normal 0.000000e+00 0.000000e+00 1.000000e+00
    outer loop
      vertex -2.322330e+00 1.535534e+01 7.000000e+01
      vertex 1.213203e+00 1.535534e+01 7.000000e+01
      vertex 1.213203e+00 1.889087e+01 7.000000e+01
    endloop
  endfacet
  facet normal 0.000000e+00 0.000000e+00 1.000000e+00
    outer loop
      vertex -2.322330e+00 1.535534e+01 7.000000e+01
      vertex 1.213203e+00 1.889087e+01 7.000000e+01
      vertex -2.322330e+00 1.889087e+01 7.000000e+01
    endloop
  endfacet
  facet normal 0.000000e+00 0.000000e+00 1.000000e+00
    outer loop
      vertex 1.213203e+00 -2.000000e+01 7.000000e+01
      vertex 4.748737e+00 -2.000000e+01 7.000000e+01
      vertex 4.748737e+00 -1.646447e+01 7.000000e+01
    endloop
  endfacet
  facet normal 0.000000e+00 0.000000e+00 1.000000e+00
    outer loop
      vertex 1.213203e+00 -2.000000e+01 7.000000e+01
      vertex 4.748737e+00 -1.646447e+01 7.000000e+01
      vertex 1.213203e+00 -1.646447e+01 7.000000e+01
    endloop
  endfacet
  facet normal 0.000000e+00 0.000000e+00 1.000000e+00
    outer loop
      vertex 1.213203e+00 -1.646447e+01 7.000000e+01
      vertex 4.748737e+00 -1.646447e+01 7.000000e+01
      vertex 4.748737e+00 -1.292893e+01 7.000000e+01
    endloop
  endfacet
  facet normal 0.000000e+00 0.000000e+00 1.000000e+00
    outer loop
      vertex 1.213203e+00 -1.646447e+01 7.000000e+01
      vertex 4.748737e+00 -1.292893e+01 7.000000e+01
      vertex 1.213203e+00 -1.292893e+01 7.000000e+01
    endloop
  endfacet
  facet normal 0.000000e+00 0.000000e+00 1.000000e+00
    outer loop
      vertex 1.213203e+00 -1.292893e+01 7.000000e+01
      vertex 4.748737e+00 -1.292893e+01 7.000000e+01
      vertex 4.748737e+00 -9.393398e+00 7.000000e+01
    endloop
  endfacet
  facet normal 0.000000e+00 0.000000e+00 1.000000e+00
    outer loop
      vertex 1.213203e+00 -1.292893e+01 7.000000e+01
      vertex 4.748737e+00 -9.393398e+00 7.000000e+01
      vertex 1.213203e+00 -9.393398e+00 7.000000e+01
    endloop
  endfacet
  facet normal 0.000000e+00 0.000000e+00 1.000000e+00
    outer loop
      vertex 1.213203e+00 -9.393398e+00 7.000000e+01
      vertex 4.748737e+00 -9.393398e+00 7.000000e+01
      vertex 4.748737e+00 -5.857864e+00 7.000000e+01
    endloop
  endfacet
  facet normal 0.000000e+00 0.000000e+00 1.000000e+00
    outer loop
      vertex 1.213203e+00 -9.393398e+00 7.000000e+01
      vertex 4.748737e+00 -5.857864e+00 7.000000e+01
      vertex 1.213203e+00 -5.857864e+00 7.000000e+01
    endloop
  endfacet
  facet normal 0.000000e+00 0.000000e+00 1.000000e+00
    outer loop
      vertex 1.213203e+00 -5.857864e+00 7.000000e+01
      vertex 4.748737e+00 -5.857864e+00 7.000000e+01
      vertex 4.748737e+00 -2.322330e+00 7.000000e+01
    endloop
  endfacet
  facet normal 0.000000e+00 0.000000e+00 1.000000e+00
    outer loop
      vertex 1.213203e+00 -5.857864e+00 7.000000e+01
      vertex 4.748737e+00 -2.322330e+00 7.000000e+01
      vertex 1.213203e+00 -2.322330e+00 7.000000e+01
    endloop
  endfacet
  facet normal 0.000000e+00 0.000000e+00 1.000000e+00
    outer loop
      vertex 1.213203e+00 -2.322330e+00 7.000000e+01
      vertex 4.748737e+00 -2.322330e+00 7.000000e+01
      vertex 4.748737e+00 1.213203e+00 7.000000e+01
    endloop
  endfacet
  facet normal 0.000000e+00 0.000000e+00 1.000000e+00
    outer loop
      vertex 1.213203e+00 -2.322330e+00 7.000000e+01
      vertex 4.748737e+00 1.213203e+00 7.000000e+01
      vertex 1.213203e+00 1.213203e+00 7.000000e+01
    endloop
  endfacet
  facet normal 0.000000e+00 0.000000e+00 1.000000e+00
    outer loop
      vertex 1.213203e+00 1.213203e+00 7.000000e+01
      vertex 4.748737e+00 1.213203e+00 7.000000e+01
      vertex 4.748737e+00 4.748737e+00 7.000000e+01
    endloop
  endfacet
  facet normal 0.000000e+00 0.000000e+00 1.000000e+00
    outer loop
      vertex 1.213203e+00 1.213203e+00 7.000000e+01
      vertex 4.748737e+00 4.748737e+00 7.000000e+01
      vertex 1.213203e+00 4.748737e+00 7.000000e+01
    endloop
  endfacet
  facet normal 0.000000e+00 0.000000e+00 1.000000e+00
    outer loop
      vertex 1.213203e+00 4.748737e+00 7.000000e+01
      vertex 4.748737e+00 4.748737e+00 7.000000e+01
      vertex 4.748737e+00 8.284271e+00 7.000000e+01
    endloop
  endfacet
  facet normal 0.000000e+00 0.000000e+00 1.000000e+00
    outer loop
      vertex 1.213203e+00 4.748737e+00 7.000000e+01
      vertex 4.748737e+00 8.284271e+00 7.000000e+01
      vertex 1.213203e+00 8.284271e+00 7.000000e+01
    endloop
  endfacet
  facet normal 0.000000e+00 0.000000e+00 1.000000e+00
    outer loop
      vertex 1.213203e+00 8.284271e+00 7.000000e+01
      vertex 4.748737e+00 8.284271e+00 7.000000e+01
      vertex 4.748737e+00 1.181981e+01 7.000000e+01
    endloop
  endfacet
  facet normal 0.000000e+00 0.000000e+00 1.000000e+00
    outer loop
      vertex 1.213203e+00 8.284271e+00 7.000000e+01
      vertex 4.748737e+00 1.181981e+01 7.000000e+01
      vertex 1.213203e+00 1.181981e+01 7.000000e+01
    endloop
  endfacet
  facet normal 0.000000e+00 0.000000e+00 1.000000e+00
    outer loop
      vertex 1.213203e+00 1.181981e+01 7.000000e+01
      vertex 4.748737e+00 1.181981e+01 7.000000e+01
      vertex 4.748737e+00 1.535534e+01 7.000000e+01
    endloop
  endfacet
  facet normal 0.000000e+00 0.000000e+00 1.000000e+00
    outer loop
      vertex 1.213203e+00 1.181981e+01 7.000000e+01
      vertex 4.748737e+00 1.535534e+01 7.000000e+01
      vertex 1.213203e+00 1.535534e+01 7.000000e+01
    endloop
  endfacet
  facet normal 0.000000e+00 0.000000e+00 1.000000e+00
    outer loop
      vertex 1.213203e+00 1.535534e+01 7.000000e+01
      vertex 4.748737e+00 1.535534e+01 7.000000e+01
      vertex 4.748737e+00 1.889087e+01 7.000000e+01
    endloop
  endfacet
  facet normal 0.000000e+00 0.000000e+00 1.000000e+00
    outer loop
      vertex 1.213203e+00 1.535534e+01 7.000000e+01
      vertex 4.748737e+00 1.889087e+01 7.000000e+01
      vertex 1.213203e+00 1.889087e+01 7.000000e+01
    endloop
  endfacet
  facet normal 0.000000e+00 0.000000e+00 1.000000e+00
    outer loop
      vertex 4.748737e+00 -2.000000e+01 7.000000e+01
      vertex 8.284271e+00 -1.646447e+01 7.000000e+01
      vertex 4.748737e+00 -1.646447e+01 7.000000e+01
    endloop
  endfacet
  facet normal 0.000000e+00 0.000000e+00 1.000000e+00
    outer loop
      vertex 4.748737e+00 -1.646447e+01 7.000000e+01
      vertex 8.284271e+00 -1.646447e+01 7.000000e+01
      vertex 8.284271e+00 -1.292893e+01 7.000000e+01
    endloop
  endfacet
  facet normal 0.000000e+00 0.000000e+00 1.000000e+00
    outer loop
      vertex 4.748737e+00 -1.646447e+01 7.000000e+01
      vertex 8.284271e+00 -1.292893e+01 7.000000e+01
      vertex 4.748737e+00 -1.292893e+01 7.000000e+01
    endloop
  endfacet
  facet normal 0.000000e+00 0.000000e+00 1.000000e+00
    outer loop
      vertex 4.748737e+00 -1.292893e+01 7.000000e+01
      vertex 8.284271e+00 -1.292893e+01 7.000000e+01
      vertex 8.284271e+00 -9.393398e+00 7.000000e+01
    endloop
  endfacet
  facet normal 0.000000e+00 0.000000e+00 1.000000e+00
    outer loop
      vertex 4.748737e+00 -1.292893e+01 7.000000e+01
      vertex 8.284271e+00 -9.393398e+00 7.000000e+01
      vertex 4.748737e+00 -9.393398e+00 7.000000e+01
    endloop
  endfacet
  facet normal 0.000000e+00 0.000000e+00 1.000000e+00
    outer loop
      vertex 4.748737e+00 -9.393398e+00 7.000000e+01
      vertex 8.284271e+00 -9.393398e+00 7.000000e+01
      vertex 8.284271e+00 -5.857864e+00 7.000000e+01
    endloop
  endfacet
  facet normal 0.000000e+00 0.000000e+00 1.000000e+00
    outer loop
      vertex 4.748737e+00 -9.393398e+00 7.000000e+01
      vertex 8.284271e+00 -5.857864e+00 7.000000e+01
      vertex 4.748737e+00 -5.857864e+00 7.000000e+01
    endloop
  endfacet
  facet normal 0.000000e+00 0.000000e+00 1.000000e+00
    outer loop
      vertex 4.748737e+00 -5.857864e+00 7.000000e+01
      vertex 8.284271e+00 -5.857864e+00 7.000000e+01
      vertex 8.284271e+00 -2.322330e+00 7.000000e+01
    endloop
  endfacet
  facet normal 0.000000e+00 0.000000e+00 1.000000e+00
    outer loop
      vertex 4.748737e+00 -5.857864e+00 7.000000e+01
      vertex 8.284271e+00 -2.322330e+00 7.000000e+01
      vertex 4.748737e+00 -2.322330e+00 7.000000e+01
    endloop
  endfacet
  facet normal 0.000000e+00 0.000000e+00 1.000000e+00
    outer loop
      vertex 4.748737e+00 -2.322330e+00 7.000000e+01
      vertex 8.284271e+00 -2.322330e+00 7.000000e+01
      vertex 8.284271e+00 1.213203e+00 7.000000e+01
    endloop
  endfacet
  facet normal 0.000000e+00 0.000000e+00 1.000000e+00
    outer loop
      vertex 4.748737e+00 -2.322330e+00 7.000000e+01
      vertex 8.284271e+00 1.213203e+00 7.000000e+01
      vertex 4.748737e+00 1.213203e+00 7.000000e+01
    endloop
  endfacet
  facet normal 0.000000e+00 0.000000e+00 1.000000e+00
    outer loop
      vertex 4.748737e+00 1.213203e+00 7.000000e+01
      vertex 8.284271e+00 1.213203e+00 7.000000e+01
      vertex 8.284271e+00 4.748737e+00 7.000000e+01
    endloop
  endfacet
  facet normal 0.000000e+00 0.000000e+00 1.000000e+00
    outer loop
      vertex 4.748737e+00 1.213203e+00 7.000000e+01
      vertex 8.284271e+00 4.748737e+00 7.000000e+01
      vertex 4.748737e+00 4.748737e+00 7.000000e+01
    endloop
  endfacet
  facet normal 0.000000e+00 0.000000e+00 1.000000e+00
    outer loop
      vertex 4.748737e+00 4.748737e+00 7.000000e+01
      vertex 8.284271e+00 4.748737e+00 7.000000e+01
      vertex 8.284271e+00 8.284271e+00 7.000000e+01
    endloop
  endfacet
  facet normal 0.000000e+00 0.000000e+00 1.000000e+00
    outer loop
      vertex 4.748737e+00 4.748737e+00 7.000000e+01
      vertex 8.284271e+00 8.284271e+00 7.000000e+01
      vertex 4.748737e+00 8.284271e+00 7.000000e+01
    endloop
  endfacet
  facet normal 0.000000e+00 0.000000e+00 1.000000e+00
    outer loop
      vertex 4.748737e+00 8.284271e+00 7.000000e+01
      vertex 8.284271e+00 8.284271e+00 7.000000e+01
      vertex 8.284271e+00 1.181981e+01 7.000000e+01
    endloop
  endfacet
  facet normal 0.000000e+00 0.000000e+00 1.000000e+00
    outer loop
      vertex 4.748737e+00 8.284271e+00 7.000000e+01
      vertex 8.284271e+00 1.181981e+01 7.000000e+01
      vertex 4.748737e+00 1.181981e+01 7.000000e+01
    endloop
  endfacet
  facet normal 0.000000e+00 0.000000e+00 1.000000e+00
    outer loop
      vertex 4.748737e+00 1.181981e+01 7.000000e+01
      vertex 8.284271e+00 1.181981e+01 7.000000e+01
      vertex 8.284271e+00 1.535534e+01 7.000000e+01
    endloop
  endfacet
  facet normal 0.000000e+00 0.000000e+00 1.000000e+00
    outer loop
      vertex 4.748737e+00 1.181981e+01 7.000000e+01
      vertex 8.284271e+00 1.535534e+01 7.000000e+01
      vertex 4.748737e+00 1.535534e+01 7.000000e+01
    endloop
  endfacet
  facet normal 0.000000e+00 0.000000e+00 1.000000e+00
    outer loop
      vertex 4.748737e+00 1.535534e+01 7.000000e+01
      vertex 8.284271e+00 1.535534e+01 7.000000e+01
      vertex 8.284271e+00 1.889087e+01 7.000000e+01
    endloop
  endfacet
  facet normal 0.000000e+00 0.000000e+00 1.000000e+00
    outer loop
      vertex 4.748737e+00 1.535534e+01 7.000000e+01
      vertex 8.284271e+00 1.889087e+01 7.000000e+01
      vertex 4.748737e+00 1.889087e+01 7.000000e+01
    endloop
  endfacet
  facet normal 0.000000e+00 0.000000e+00 1.000000e+00
    outer loop
      vertex 8.284271e+00 -1.646447e+01 7.000000e+01
      vertex 1.181981e+01 -1.646447e+01 7.000000e+01
      vertex 1.181981e+01 -1.292893e+01 7.000000e+01
    endloop
  endfacet
  facet normal 0.000000e+00 0.000000e+00 1.000000e+00
    outer loop
      vertex 8.284271e+00 -1.646447e+01 7.000000e+01
      vertex 1.181981e+01 -1.292893e+01 7.000000e+01
      vertex 8.284271e+00 -1.292893e+01 7.000000e+01
    endloop
  endfacet
  facet normal 0.000000e+00 0.000000e+00 1.000000e+00
    outer loop
      vertex 8.284271e+00 -1.292893e+01 7.000000e+01
      vertex 1.181981e+01 -1.292893e+01 7.000000e+01
      vertex 1.181981e+01 -9.393398e+00 7.000000e+01
    endloop
  endfacet
  facet normal 0.000000e+00 0.000000e+00 1.000000e+00
    outer loop
      vertex 8.284271e+00 -1.292893e+01 7.000000e+01
      vertex 1.181981e+01 -9.393398e+00 7.000000e+01
      vertex 8.284271e+00 -9.393398e+00 7.000000e+01
    endloop
  endfacet
  facet normal 0.000000e+00 0.000000e+00 1.000000e+00
    outer loop
      vertex 8.284271e+00 -9.393398e+00 7.000000e+01
      vertex 1.181981e+01 -9.393398e+00 7.000000e+01
      vertex 1.181981e+01 -5.857864e+00 7.000000e+01
    endloop
  endfacet
  facet normal 0.000000e+00 0.000000e+00 1.000000e+00
    outer loop
      vertex 8.284271e+00 -9.393398e+00 7.000000e+01
      vertex 1.181981e+01 -5.857864e+00 7.000000e+01
      vertex 8.284271e+00 -5.857864e+00 7.000000e+01
    endloop
  endfacet
  facet normal 0.000000e+00 0.000000e+00 1.000000e+00
    outer loop
      vertex 8.284271e+00 -5.857864e+00 7.000000e+01
      vertex 1.181981e+01 -5.857864e+00 7.000000e+01
      vertex 1.181981e+01 -2.322330e+00 7.000000e+01
    endloop
  endfacet
  facet normal 0.000000e+00 0.000000e+00 1.000000e+00
    outer loop
      vertex 8.284271e+00 -5.857864e+00 7.000000e+01
      vertex 1.181981e+01 -2.322330e+00 7.000000e+01
      vertex 8.284271e+00 -2.322330e+00 7.000000e+01
    endloop
  endfacet
  facet normal 0.000000e+00 0.000000e+00 1.000000e+00
    outer loop
      vertex 8.284271e+00 -2.322330e+00 7.000000e+01
      vertex 1.181981e+01 -2.322330e+00 7.000000e+01
      vertex 1.181981e+01 1.213203e+00 7.000000e+01
    endloop
  endfacet
  facet normal 0.000000e+00 0.000000e+00 1.000000e+00
    outer loop
      vertex 8.284271e+00 -2.322330e+00 7.000000e+01
      vertex 1.181981e+01 1.213203e+00 7.000000e+01
      vertex 8.284271e+00 1.213203e+00 7.000000e+01
    endloop
  endfacet
  facet normal 0.000000e+00 0.000000e+00 1.000000e+00
    outer loop
      vertex 8.284271e+00 1.213203e+00 7.000000e+01
      vertex 1.181981e+01 1.213203e+00 7.000000e+01
      vertex 1.181981e+01 4.748737e+00 7.000000e+01
    endloop
  endfacet
  facet normal 0.000000e+00 0.000000e+00 1.000000e+00
    outer loop
      vertex 8.284271e+00 1.213203e+00 7.000000e+01
      vertex 1.181981e+01 4.748737e+00 7.000000e+01
      vertex 8.284271e+00 4.748737e+00 7.000000e+01
    endloop
  endfacet
  facet normal 0.000000e+00 0.000000e+00 1.000000e+00
    outer loop
      vertex 8.284271e+00 4.748737e+00 7.000000e+01
      vertex 1.181981e+01 4.748737e+00 7.000000e+01
      vertex 1.181981e+01 8.284271e+00 7.000000e+01
    endloop
  endfacet
  facet normal 0.000000e+00 0.000000e+00 1.000000e+00
    outer loop
      vertex 8.284271e+00 4.748737e+00 7.000000e+01
      vertex 1.181981e+01 8.284271e+00 7.000000e+01
      vertex 8.284271e+00 8.284271e+00 7.000000e+01
    endloop
  endfacet
  facet normal 0.000000e+00 0.000000e+00 1.000000e+00
    outer loop
      vertex 8.284271e+00 8.284271e+00 7.000000e+01
      vertex 1.181981e+01 8.284271e+00 7.000000e+01
      vertex 1.181981e+01 1.181981e+01 7.000000e+01
    endloop
  endfacet
  facet normal 0.000000e+00 0.000000e+00 1.000000e+00
    outer loop
      vertex 8.284271e+00 8.284271e+00 7.000000e+01
      vertex 1.181981e+01 1.181981e+01 7.000000e+01
      vertex 8.284271e+00 1.181981e+01 7.000000e+01
    endloop
  endfacet
  facet normal 0.000000e+00 0.000000e+00 1.000000e+00
    outer loop
      vertex 8.284271e+00 1.181981e+01 7.000000e+01
      vertex 1.181981e+01 1.181981e+01 7.000000e+01
      vertex 1.181981e+01 1.535534e+01 7.000000e+01
    endloop
  endfacet
  facet normal 0.000000e+00 0.000000e+00 1.000000e+00
    outer loop
      vertex 8.284271e+00 1.181981e+01 7.000000e+01
      vertex 1.181981e+01 1.535534e+01 7.000000e+01
      vertex 8.284271e+00 1.535534e+01 7.000000e+01
    endloop
  endfacet
  facet normal 0.000000e+00 0.000000e+00 1.000000e+00
    outer loop
      vertex 8.284271e+00 1.535534e+01 7.000000e+01
      vertex 1.181981e+01 1.535534e+01 7.000000e+01
      vertex 1.181981e+01 1.889087e+01 7.000000e+01
    endloop
  endfacet
  facet normal 0.000000e+00 0.000000e+00 1.000000e+00
    outer loop
      vertex 1.181981e+01 -1.646447e+01 7.000000e+01
      vertex 1.535534e+01 -1.292893e+01 7.000000e+01
      vertex 1.181981e+01 -1.292893e+01 7.000000e+01
    endloop
  endfacet
  facet normal 0.000000e+00 0.000000e+00 1.000000e+00
    outer loop
      vertex 1.181981e+01 -1.292893e+01 7.000000e+01
      vertex 1.535534e+01 -1.292893e+01 7.000000e+01
      vertex 1.535534e+01 -9.393398e+00 7.000000e+01
    endloop
  endfacet
  facet normal 0.000000e+00 0.000000e+00 1.000000e+00
    outer loop
      vertex 1.181981e+01 -1.292893e+01 7.000000e+01
      vertex 1.535534e+01 -9.393398e+00 7.000000e+01
      vertex 1.181981e+01 -9.393398e+00 7.000000e+01
    endloop
  endfacet
  facet normal 0.000000e+00 0.000000e+00 1.000000e+00
    outer loop
      vertex 1.181981e+01 -9.393398e+00 7.000000e+01
      vertex 1.535534e+01 -9.393398e+00 7.000000e+01
      vertex 1.535534e+01 -5.857864e+00 7.000000e+01
    endloop
  endfacet
  facet normal 0.000000e+00 0.000000e+00 1.000000e+00
    outer loop
      vertex 1.181981e+01 -9.393398e+00 7.000000e+01
      vertex 1.535534e+01 -5.857864e+00 7.000000e+01
      vertex 1.181981e+01 -5.857864e+00 7.000000e+01
    endloop
  endfacet
  facet normal 0.000000e+00 0.000000e+00 1.000000e+00
    outer loop
      vertex 1.181981e+01 -5.857864e+00 7.000000e+01
      vertex 1.535534e+01 -5.857864e+00 7.000000e+01
      vertex 1.535534e+01 -2.322330e+00 7.000000e+01
    endloop
  endfacet
  facet normal 0.000000e+00 0.000000e+00 1.000000e+00
    outer loop
      vertex 1.181981e+01 -5.857864e+00 7.000000e+01
      vertex 1.535534e+01 -2.322330e+00 7.000000e+01
      vertex 1.181981e+01 -2.322330e+00 7.000000e+01
    endloop
  endfacet
  facet normal 0.000000e+00 0.000000e+00 1.000000e+00
    outer loop
      vertex 1.181981e+01 -2.322330e+00 7.000000e+01
      vertex 1.535534e+01 -2.322330e+00 7.000000e+01
      vertex 1.535534e+01 1.213203e+00 7.000000e+01
    endloop
  endfacet
  facet normal 0.000000e+00 0.000000e+00 1.000000e+00
    outer loop
      vertex 1.181981e+01 -2.322330e+00 7.000000e+01
      vertex 1.535534e+01 1.213203e+00 7.000000e+01
      vertex 1.181981e+01 1.213203e+00 7.000000e+01
    endloop
  endfacet
  facet normal 0.000000e+00 0.000000e+00 1.000000e+00
    outer loop
      vertex 1.181981e+01 1.213203e+00 7.000000e+01
      vertex 1.535534e+01 1.213203e+00 7.000000e+01
      vertex 1.535534e+01 4.748737e+00 7.000000e+01
    endloop
  endfacet
  facet normal 0.000000e+00 0.000000e+00 1.000000e+00
    outer loop
      vertex 1.181981e+01 1.213203e+00 7.000000e+01
      vertex 1.535534e+01 4.748737e+00 7.000000e+01
      vertex 1.181981e+01 4.748737e+00 7.000000e+01
    endloop
  endfacet
  facet normal 0.000000e+00 0.000000e+00 1.000000e+00
    outer loop
      vertex 1.181981e+01 4.748737e+00 7.000000e+01
      vertex 1.535534e+01 4.748737e+00 7.000000e+01
      vertex 1.535534e+01 8.284271e+00 7.000000e+01
    endloop
  endfacet
  facet normal 0.000000e+00 0.000000e+00 1.000000e+00
    outer loop
      vertex 1.181981e+01 4.748737e+00 7.000000e+01
      vertex 1.535534e+01 8.284271e+00 7.000000e+01
      vertex 1.181981e+01 8.284271e+00 7.000000e+01
    endloop
  endfacet
  facet normal 0.000000e+00 0.000000e+00 1.000000e+00
    outer loop
      vertex 1.181981e+01 8.284271e+00 7.000000e+01
      vertex 1.535534e+01 8.284271e+00 7.000000e+01
      vertex 1.535534e+01 1.181981e+01 7.000000e+01
    endloop
  endfacet
  facet normal 0.000000e+00 0.000000e+00 1.000000e+00
    outer loop
      vertex 1.181981e+01 8.284271e+00 7.000000e+01
      vertex 1.535534e+01 1.181981e+01 7.000000e+01
      vertex 1.181981e+01 1.181981e+01 7.000000e+01
    endloop
  endfacet
  facet normal 0.000000e+00 0.000000e+00 1.000000e+00
    outer loop
      vertex 1.181981e+01 1.181981e+01 7.000000e+01
      vertex 1.535534e+01 1.181981e+01 7.000000e+01
      vertex 1.535534e+01 1.535534e+01 7.000000e+01
    endloop
  endfacet
  facet normal 0.000000e+00 0.000000e+00 1.000000e+00
    outer loop
      vertex 1.181981e+01 1.181981e+01 7.000000e+01
      vertex 1.535534e+01 1.535534e+01 7.000000e+01
      vertex 1.181981e+01 1.535534e+01 7.000000e+01
    endloop
  endfacet
  facet normal 0.000000e+00 0.000000e+00 1.000000e+00
    outer loop
      vertex 1.535534e+01 -1.292893e+01 7.000000e+01
      vertex 1.889087e+01 -9.393398e+00 7.000000e+01
      vertex 1.535534e+01 -9.393398e+00 7.000000e+01
    endloop
  endfacet
  facet normal 0.000000e+00 0.000000e+00 1.000000e+00
    outer loop
      vertex 1.535534e+01 -9.393398e+00 7.000000e+01
      vertex 1.889087e+01 -9.393398e+00 7.000000e+01
      vertex 1.889087e+01 -5.857864e+00 7.000000e+01
    endloop
  endfacet
  facet normal 0.000000e+00 0.000000e+00 1.000000e+00
    outer loop
      vertex 1.535534e+01 -9.393398e+00 7.000000e+01
      vertex 1.889087e+01 -5.857864e+00 7.000000e+01
      vertex 1.535534e+01 -5.857864e+00 7.000000e+01
    endloop
  endfacet
  facet normal 0.000000e+00 0.000000e+00 1.000000e+00
    outer loop
      vertex 1.535534e+01 -5.857864e+00 7.000000e+01
      vertex 1.889087e+01 -5.857864e+00 7.000000e+01
      vertex 1.889087e+01 -2.322330e+00 7.000000e+01
    endloop
  endfacet
  facet normal 0.000000e+00 0.000000e+00 1.000000e+00
    outer loop
      vertex 1.535534e+01 -5.857864e+00 7.000000e+01
      vertex 1.889087e+01 -2.322330e+00 7.000000e+01
      vertex 1.535534e+01 -2.322330e+00 7.000000e+01
    endloop
  endfacet
  facet normal 0.000000e+00 0.000000e+00 1.000000e+00
    outer loop
      vertex 1.535534e+01 -2.322330e+00 7.000000e+01
      vertex 1.889087e+01 -2.322330e+00 7.000000e+01
      vertex 1.889087e+01 1.213203e+00 7.000000e+01
    endloop
  endfacet
  facet normal 0.000000e+00 0.000000e+00 1.000000e+00
    outer loop
      vertex 1.535534e+01 -2.322330e+00 7.000000e+01
      vertex 1.889087e+01 1.213203e+00 7.000000e+01
      vertex 1.535534e+01 1.213203e+00 7.000000e+01
    endloop
  endfacet
  facet normal 0.000000e+00 0.000000e+00 1.000000e+00
    outer loop
      vertex 1.535534e+01 1.213203e+00 7.000000e+01
      vertex 1.889087e+01 1.213203e+00 7.000000e+01
      vertex 1.889087e+01 4.748737e+00 7.000000e+01
    endloop
  endfacet
  facet normal 0.000000e+00 0.000000e+00 1.000000e+00
    outer loop
      vertex 1.535534e+01 1.213203e+00 7.000000e+01
      vertex 1.889087e+01 4.748737e+00 7.000000e+01
      vertex 1.535534e+01 4.748737e+00 7.000000e+01
    endloop
  endfacet
  facet normal 0.000000e+00 0.000000e+00 1.000000e+00
    outer loop
      vertex 1.535534e+01 4.748737e+00 7.000000e+01
      vertex 1.889087e+01 4.748737e+00 7.000000e+01
      vertex 1.889087e+01 8.284271e+00 7.000000e+01
    endloop
  endfacet
  facet normal 0.000000e+00 0.000000e+00 1.000000e+00
    outer loop
      vertex 1.535534e+01 4.748737e+00 7.000000e+01
      vertex 1.889087e+01 8.284271e+00 7.000000e+01
      vertex 1.535534e+01 8.284271e+00 7.000000e+01
    endloop
  endfacet
  facet normal 0.000000e+00 0.000000e+00 1.000000e+00
    outer loop
      vertex 1.535534e+01 8.284271e+00 7.000000e+01
      vertex 1.889087e+01 1.181981e+01 7.000000e+01
      vertex 1.535534e+01 1.181981e+01 7.000000e+01
    endloop
  endfacet
endsolid circular_cap
